<mxfile host="app.diagrams.net" modified="2020-10-15T12:31:47.219Z" agent="5.0 (Macintosh; Intel Mac OS X 10_15_6) AppleWebKit/537.36 (KHTML, like Gecko) Chrome/85.0.4183.121 Safari/537.36" etag="qj6RdTMUkXgSDk30r0KZ" version="13.8.0" type="github" pages="4">
  <diagram id="pqXCdQUKRn2x1dWqDvbr" name="[0] intro topologies">
    <mxGraphModel dx="2052" dy="1100" grid="1" gridSize="1" guides="1" tooltips="1" connect="1" arrows="1" fold="1" page="1" pageScale="1" pageWidth="827" pageHeight="1169" math="0" shadow="0">
      <root>
        <mxCell id="0" />
        <mxCell id="1" parent="0" />
        <mxCell id="Shn82EJDHSnE-vzaOmSC-1" value="" style="rounded=0;whiteSpace=wrap;html=1;fontFamily=Manrope;fontSize=8;strokeColor=none;fillColor=#DDE9F5;fontSource=https%3A%2F%2Ffonts.googleapis.com%2Fcss%3Ffamily%3DManrope;" parent="1" vertex="1">
          <mxGeometry x="133" y="266.5" width="323" height="41" as="geometry" />
        </mxCell>
        <mxCell id="Shn82EJDHSnE-vzaOmSC-2" value="" style="rounded=0;whiteSpace=wrap;html=1;fontFamily=Manrope;fontSize=8;strokeColor=none;fillColor=#DDE9F5;fontSource=https%3A%2F%2Ffonts.googleapis.com%2Fcss%3Ffamily%3DManrope;" parent="1" vertex="1">
          <mxGeometry x="133" y="320" width="323" height="42" as="geometry" />
        </mxCell>
        <mxCell id="Shn82EJDHSnE-vzaOmSC-3" style="rounded=0;orthogonalLoop=1;jettySize=auto;html=1;exitX=0.5;exitY=0;exitDx=0;exitDy=0;entryX=0.5;entryY=1;entryDx=0;entryDy=0;startSize=6;endArrow=none;endFill=0;endSize=2;fontFamily=Manrope;fontSize=8;strokeColor=#98A2AE;fontSource=https%3A%2F%2Ffonts.googleapis.com%2Fcss%3Ffamily%3DManrope;" parent="1" edge="1">
          <mxGeometry relative="1" as="geometry">
            <mxPoint x="181" y="326" as="sourcePoint" />
            <mxPoint x="203" y="302" as="targetPoint" />
          </mxGeometry>
        </mxCell>
        <mxCell id="Shn82EJDHSnE-vzaOmSC-4" style="rounded=0;orthogonalLoop=1;jettySize=auto;html=1;exitX=0.5;exitY=0;exitDx=0;exitDy=0;entryX=0.5;entryY=1;entryDx=0;entryDy=0;startSize=6;endArrow=none;endFill=0;endSize=2;fontFamily=Manrope;fontSize=8;strokeColor=#98A2AE;fontSource=https%3A%2F%2Ffonts.googleapis.com%2Fcss%3Ffamily%3DManrope;" parent="1" edge="1">
          <mxGeometry relative="1" as="geometry">
            <mxPoint x="181" y="326" as="sourcePoint" />
            <mxPoint x="261" y="302" as="targetPoint" />
          </mxGeometry>
        </mxCell>
        <mxCell id="Shn82EJDHSnE-vzaOmSC-5" style="rounded=0;orthogonalLoop=1;jettySize=auto;html=1;exitX=0.5;exitY=0;exitDx=0;exitDy=0;entryX=0.5;entryY=1;entryDx=0;entryDy=0;startSize=6;endArrow=none;endFill=0;endSize=2;fontFamily=Manrope;fontSize=8;strokeColor=#98A2AE;fontSource=https%3A%2F%2Ffonts.googleapis.com%2Fcss%3Ffamily%3DManrope;" parent="1" edge="1">
          <mxGeometry relative="1" as="geometry">
            <mxPoint x="283" y="326" as="sourcePoint" />
            <mxPoint x="203" y="302" as="targetPoint" />
          </mxGeometry>
        </mxCell>
        <mxCell id="Shn82EJDHSnE-vzaOmSC-6" style="rounded=0;orthogonalLoop=1;jettySize=auto;html=1;exitX=0.5;exitY=0;exitDx=0;exitDy=0;entryX=0.5;entryY=1;entryDx=0;entryDy=0;startSize=6;endArrow=none;endFill=0;endSize=2;fontFamily=Manrope;fontSize=8;strokeColor=#98A2AE;fontSource=https%3A%2F%2Ffonts.googleapis.com%2Fcss%3Ffamily%3DManrope;" parent="1" edge="1">
          <mxGeometry relative="1" as="geometry">
            <mxPoint x="283" y="326" as="sourcePoint" />
            <mxPoint x="261" y="302" as="targetPoint" />
          </mxGeometry>
        </mxCell>
        <mxCell id="Shn82EJDHSnE-vzaOmSC-7" value="" style="rounded=0;whiteSpace=wrap;html=1;fontFamily=Manrope;fontSize=8;strokeColor=none;fillColor=#DDE9F5;fontSource=https%3A%2F%2Ffonts.googleapis.com%2Fcss%3Ffamily%3DManrope;" parent="1" vertex="1">
          <mxGeometry x="133" y="211" width="323" height="41" as="geometry" />
        </mxCell>
        <mxCell id="Shn82EJDHSnE-vzaOmSC-8" style="rounded=0;orthogonalLoop=1;jettySize=auto;html=1;exitX=0.5;exitY=0;exitDx=0;exitDy=0;entryX=0.5;entryY=1;entryDx=0;entryDy=0;startSize=6;endArrow=none;endFill=0;endSize=2;fontFamily=Manrope;fontSize=8;strokeColor=#98A2AE;fontSource=https%3A%2F%2Ffonts.googleapis.com%2Fcss%3Ffamily%3DManrope;" parent="1" edge="1">
          <mxGeometry relative="1" as="geometry">
            <mxPoint x="203" y="272" as="sourcePoint" />
            <mxPoint x="273" y="246" as="targetPoint" />
          </mxGeometry>
        </mxCell>
        <mxCell id="Shn82EJDHSnE-vzaOmSC-9" style="rounded=0;orthogonalLoop=1;jettySize=auto;html=1;exitX=0.5;exitY=0;exitDx=0;exitDy=0;entryX=0.5;entryY=1;entryDx=0;entryDy=0;startSize=6;endArrow=none;endFill=0;endSize=2;fontFamily=Manrope;fontSize=8;strokeColor=#98A2AE;fontSource=https%3A%2F%2Ffonts.googleapis.com%2Fcss%3Ffamily%3DManrope;" parent="1" edge="1">
          <mxGeometry relative="1" as="geometry">
            <mxPoint x="261" y="272" as="sourcePoint" />
            <mxPoint x="337" y="246" as="targetPoint" />
          </mxGeometry>
        </mxCell>
        <mxCell id="Shn82EJDHSnE-vzaOmSC-10" style="rounded=0;orthogonalLoop=1;jettySize=auto;html=1;exitX=0.5;exitY=0;exitDx=0;exitDy=0;entryX=0.5;entryY=1;entryDx=0;entryDy=0;startSize=6;endArrow=none;endFill=0;endSize=2;fontFamily=Manrope;fontSize=8;strokeColor=#98A2AE;fontSource=https%3A%2F%2Ffonts.googleapis.com%2Fcss%3Ffamily%3DManrope;" parent="1" edge="1">
          <mxGeometry relative="1" as="geometry">
            <mxPoint x="330" y="326" as="sourcePoint" />
            <mxPoint x="352" y="302" as="targetPoint" />
          </mxGeometry>
        </mxCell>
        <mxCell id="Shn82EJDHSnE-vzaOmSC-11" style="rounded=0;orthogonalLoop=1;jettySize=auto;html=1;exitX=0.5;exitY=0;exitDx=0;exitDy=0;entryX=0.5;entryY=1;entryDx=0;entryDy=0;startSize=6;endArrow=none;endFill=0;endSize=2;fontFamily=Manrope;fontSize=8;strokeColor=#98A2AE;fontSource=https%3A%2F%2Ffonts.googleapis.com%2Fcss%3Ffamily%3DManrope;" parent="1" edge="1">
          <mxGeometry relative="1" as="geometry">
            <mxPoint x="330" y="326" as="sourcePoint" />
            <mxPoint x="410" y="302" as="targetPoint" />
          </mxGeometry>
        </mxCell>
        <mxCell id="Shn82EJDHSnE-vzaOmSC-12" style="rounded=0;orthogonalLoop=1;jettySize=auto;html=1;exitX=0.5;exitY=0;exitDx=0;exitDy=0;entryX=0.5;entryY=1;entryDx=0;entryDy=0;startSize=6;endArrow=none;endFill=0;endSize=2;fontFamily=Manrope;fontSize=8;strokeColor=#98A2AE;fontSource=https%3A%2F%2Ffonts.googleapis.com%2Fcss%3Ffamily%3DManrope;" parent="1" edge="1">
          <mxGeometry relative="1" as="geometry">
            <mxPoint x="432" y="326" as="sourcePoint" />
            <mxPoint x="352" y="302" as="targetPoint" />
          </mxGeometry>
        </mxCell>
        <mxCell id="Shn82EJDHSnE-vzaOmSC-13" style="rounded=0;orthogonalLoop=1;jettySize=auto;html=1;exitX=0.5;exitY=0;exitDx=0;exitDy=0;entryX=0.5;entryY=1;entryDx=0;entryDy=0;startSize=6;endArrow=none;endFill=0;endSize=2;fontFamily=Manrope;fontSize=8;strokeColor=#98A2AE;fontSource=https%3A%2F%2Ffonts.googleapis.com%2Fcss%3Ffamily%3DManrope;" parent="1" edge="1">
          <mxGeometry relative="1" as="geometry">
            <mxPoint x="432" y="326" as="sourcePoint" />
            <mxPoint x="410" y="302" as="targetPoint" />
          </mxGeometry>
        </mxCell>
        <mxCell id="Shn82EJDHSnE-vzaOmSC-14" style="rounded=0;orthogonalLoop=1;jettySize=auto;html=1;exitX=0.5;exitY=0;exitDx=0;exitDy=0;entryX=0.5;entryY=1;entryDx=0;entryDy=0;startSize=6;endArrow=none;endFill=0;endSize=2;fontFamily=Manrope;fontSize=8;strokeColor=#98A2AE;fontSource=https%3A%2F%2Ffonts.googleapis.com%2Fcss%3Ffamily%3DManrope;" parent="1" edge="1">
          <mxGeometry relative="1" as="geometry">
            <mxPoint x="352" y="272" as="sourcePoint" />
            <mxPoint x="273" y="246" as="targetPoint" />
          </mxGeometry>
        </mxCell>
        <mxCell id="Shn82EJDHSnE-vzaOmSC-15" style="rounded=0;orthogonalLoop=1;jettySize=auto;html=1;exitX=0.5;exitY=0;exitDx=0;exitDy=0;entryX=0.5;entryY=1;entryDx=0;entryDy=0;startSize=6;endArrow=none;endFill=0;endSize=2;fontFamily=Manrope;fontSize=8;strokeColor=#98A2AE;fontSource=https%3A%2F%2Ffonts.googleapis.com%2Fcss%3Ffamily%3DManrope;" parent="1" edge="1">
          <mxGeometry relative="1" as="geometry">
            <mxPoint x="410" y="272" as="sourcePoint" />
            <mxPoint x="337" y="246" as="targetPoint" />
          </mxGeometry>
        </mxCell>
        <mxCell id="Shn82EJDHSnE-vzaOmSC-16" value="Super&lt;br style=&quot;font-size: 10px;&quot;&gt;Spine" style="text;html=1;align=left;verticalAlign=middle;resizable=0;points=[];autosize=1;fontSize=10;fontFamily=Manrope;rotation=0;fontSource=https%3A%2F%2Ffonts.googleapis.com%2Fcss%3Ffamily%3DManrope;fontColor=#001135;fontStyle=1" parent="1" vertex="1">
          <mxGeometry x="136" y="217" width="38" height="29" as="geometry" />
        </mxCell>
        <mxCell id="Shn82EJDHSnE-vzaOmSC-17" value="Spine" style="text;html=1;align=left;verticalAlign=middle;resizable=0;points=[];autosize=1;fontSize=10;fontFamily=Manrope;rotation=0;fontSource=https%3A%2F%2Ffonts.googleapis.com%2Fcss%3Ffamily%3DManrope;fontColor=#001135;fontStyle=1" parent="1" vertex="1">
          <mxGeometry x="136" y="278.5" width="37" height="17" as="geometry" />
        </mxCell>
        <mxCell id="Shn82EJDHSnE-vzaOmSC-18" value="Leaf" style="text;html=1;align=left;verticalAlign=middle;resizable=0;points=[];autosize=1;fontSize=10;fontFamily=Manrope;rotation=0;fontSource=https%3A%2F%2Ffonts.googleapis.com%2Fcss%3Ffamily%3DManrope;fontColor=#001135;fontStyle=1" parent="1" vertex="1">
          <mxGeometry x="136" y="332.5" width="31" height="17" as="geometry" />
        </mxCell>
        <mxCell id="Shn82EJDHSnE-vzaOmSC-19" value="" style="group;fontFamily=Manrope;fontSource=https%3A%2F%2Ffonts.googleapis.com%2Fcss%3Ffamily%3DManrope;" parent="1" vertex="1" connectable="0">
          <mxGeometry x="166" y="326" width="30" height="30" as="geometry" />
        </mxCell>
        <mxCell id="Shn82EJDHSnE-vzaOmSC-20" value="" style="whiteSpace=wrap;html=1;aspect=fixed;fillColor=#001135;strokeColor=none;connectable=1;allowArrows=1;fontFamily=Manrope;fontSource=https%3A%2F%2Ffonts.googleapis.com%2Fcss%3Ffamily%3DManrope;" parent="Shn82EJDHSnE-vzaOmSC-19" vertex="1">
          <mxGeometry width="30" height="30" as="geometry" />
        </mxCell>
        <mxCell id="Shn82EJDHSnE-vzaOmSC-21" value="" style="endArrow=open;html=1;edgeStyle=orthogonalEdgeStyle;rounded=0;endFill=0;startSize=6;endSize=2;strokeColor=#FFFFFF;fontFamily=Manrope;fontSource=https%3A%2F%2Ffonts.googleapis.com%2Fcss%3Ffamily%3DManrope;" parent="Shn82EJDHSnE-vzaOmSC-19" edge="1">
          <mxGeometry width="50" height="50" relative="1" as="geometry">
            <mxPoint x="3" y="12" as="sourcePoint" />
            <mxPoint x="11" y="3" as="targetPoint" />
            <Array as="points">
              <mxPoint x="11" y="12" />
            </Array>
          </mxGeometry>
        </mxCell>
        <mxCell id="Shn82EJDHSnE-vzaOmSC-22" value="" style="endArrow=open;html=1;edgeStyle=orthogonalEdgeStyle;rounded=0;endFill=0;startSize=6;endSize=2;strokeColor=#FFFFFF;fontFamily=Manrope;fontSource=https%3A%2F%2Ffonts.googleapis.com%2Fcss%3Ffamily%3DManrope;" parent="Shn82EJDHSnE-vzaOmSC-19" edge="1">
          <mxGeometry width="50" height="50" relative="1" as="geometry">
            <mxPoint x="11" y="27" as="sourcePoint" />
            <mxPoint x="3" y="19" as="targetPoint" />
            <Array as="points">
              <mxPoint x="11" y="19" />
            </Array>
          </mxGeometry>
        </mxCell>
        <mxCell id="Shn82EJDHSnE-vzaOmSC-23" value="" style="endArrow=open;html=1;edgeStyle=orthogonalEdgeStyle;rounded=0;endFill=0;startSize=6;endSize=2;strokeColor=#FFFFFF;fontFamily=Manrope;fontSource=https%3A%2F%2Ffonts.googleapis.com%2Fcss%3Ffamily%3DManrope;" parent="Shn82EJDHSnE-vzaOmSC-19" edge="1">
          <mxGeometry width="50" height="50" relative="1" as="geometry">
            <mxPoint x="18" y="3" as="sourcePoint" />
            <mxPoint x="27" y="12" as="targetPoint" />
            <Array as="points">
              <mxPoint x="18" y="12" />
            </Array>
          </mxGeometry>
        </mxCell>
        <mxCell id="Shn82EJDHSnE-vzaOmSC-24" value="" style="endArrow=open;html=1;edgeStyle=orthogonalEdgeStyle;rounded=0;endFill=0;startSize=6;endSize=2;strokeColor=#FFFFFF;fontFamily=Manrope;fontSource=https%3A%2F%2Ffonts.googleapis.com%2Fcss%3Ffamily%3DManrope;" parent="Shn82EJDHSnE-vzaOmSC-19" edge="1">
          <mxGeometry width="50" height="50" relative="1" as="geometry">
            <mxPoint x="27" y="19" as="sourcePoint" />
            <mxPoint x="18" y="27" as="targetPoint" />
            <Array as="points">
              <mxPoint x="18" y="19" />
            </Array>
          </mxGeometry>
        </mxCell>
        <mxCell id="Shn82EJDHSnE-vzaOmSC-25" value="" style="group;fontFamily=Manrope;fontSource=https%3A%2F%2Ffonts.googleapis.com%2Fcss%3Ffamily%3DManrope;" parent="1" vertex="1" connectable="0">
          <mxGeometry x="268" y="326" width="30" height="30" as="geometry" />
        </mxCell>
        <mxCell id="Shn82EJDHSnE-vzaOmSC-26" value="" style="whiteSpace=wrap;html=1;aspect=fixed;fillColor=#001135;strokeColor=none;connectable=1;allowArrows=1;fontFamily=Manrope;fontSource=https%3A%2F%2Ffonts.googleapis.com%2Fcss%3Ffamily%3DManrope;" parent="Shn82EJDHSnE-vzaOmSC-25" vertex="1">
          <mxGeometry width="30" height="30" as="geometry" />
        </mxCell>
        <mxCell id="Shn82EJDHSnE-vzaOmSC-27" value="" style="endArrow=open;html=1;edgeStyle=orthogonalEdgeStyle;rounded=0;endFill=0;startSize=6;endSize=2;strokeColor=#FFFFFF;fontFamily=Manrope;fontSource=https%3A%2F%2Ffonts.googleapis.com%2Fcss%3Ffamily%3DManrope;" parent="Shn82EJDHSnE-vzaOmSC-25" edge="1">
          <mxGeometry width="50" height="50" relative="1" as="geometry">
            <mxPoint x="3" y="12" as="sourcePoint" />
            <mxPoint x="11" y="3" as="targetPoint" />
            <Array as="points">
              <mxPoint x="11" y="12" />
            </Array>
          </mxGeometry>
        </mxCell>
        <mxCell id="Shn82EJDHSnE-vzaOmSC-28" value="" style="endArrow=open;html=1;edgeStyle=orthogonalEdgeStyle;rounded=0;endFill=0;startSize=6;endSize=2;strokeColor=#FFFFFF;fontFamily=Manrope;fontSource=https%3A%2F%2Ffonts.googleapis.com%2Fcss%3Ffamily%3DManrope;" parent="Shn82EJDHSnE-vzaOmSC-25" edge="1">
          <mxGeometry width="50" height="50" relative="1" as="geometry">
            <mxPoint x="11" y="27" as="sourcePoint" />
            <mxPoint x="3" y="19" as="targetPoint" />
            <Array as="points">
              <mxPoint x="11" y="19" />
            </Array>
          </mxGeometry>
        </mxCell>
        <mxCell id="Shn82EJDHSnE-vzaOmSC-29" value="" style="endArrow=open;html=1;edgeStyle=orthogonalEdgeStyle;rounded=0;endFill=0;startSize=6;endSize=2;strokeColor=#FFFFFF;fontFamily=Manrope;fontSource=https%3A%2F%2Ffonts.googleapis.com%2Fcss%3Ffamily%3DManrope;" parent="Shn82EJDHSnE-vzaOmSC-25" edge="1">
          <mxGeometry width="50" height="50" relative="1" as="geometry">
            <mxPoint x="18" y="3" as="sourcePoint" />
            <mxPoint x="27" y="12" as="targetPoint" />
            <Array as="points">
              <mxPoint x="18" y="12" />
            </Array>
          </mxGeometry>
        </mxCell>
        <mxCell id="Shn82EJDHSnE-vzaOmSC-30" value="" style="endArrow=open;html=1;edgeStyle=orthogonalEdgeStyle;rounded=0;endFill=0;startSize=6;endSize=2;strokeColor=#FFFFFF;fontFamily=Manrope;fontSource=https%3A%2F%2Ffonts.googleapis.com%2Fcss%3Ffamily%3DManrope;" parent="Shn82EJDHSnE-vzaOmSC-25" edge="1">
          <mxGeometry width="50" height="50" relative="1" as="geometry">
            <mxPoint x="27" y="19" as="sourcePoint" />
            <mxPoint x="18" y="27" as="targetPoint" />
            <Array as="points">
              <mxPoint x="18" y="19" />
            </Array>
          </mxGeometry>
        </mxCell>
        <mxCell id="Shn82EJDHSnE-vzaOmSC-31" value="" style="group;fontFamily=Manrope;fontSource=https%3A%2F%2Ffonts.googleapis.com%2Fcss%3Ffamily%3DManrope;" parent="1" vertex="1" connectable="0">
          <mxGeometry x="315" y="326" width="30" height="30" as="geometry" />
        </mxCell>
        <mxCell id="Shn82EJDHSnE-vzaOmSC-32" value="" style="whiteSpace=wrap;html=1;aspect=fixed;fillColor=#001135;strokeColor=none;connectable=1;allowArrows=1;fontFamily=Manrope;fontSource=https%3A%2F%2Ffonts.googleapis.com%2Fcss%3Ffamily%3DManrope;" parent="Shn82EJDHSnE-vzaOmSC-31" vertex="1">
          <mxGeometry width="30" height="30" as="geometry" />
        </mxCell>
        <mxCell id="Shn82EJDHSnE-vzaOmSC-33" value="" style="endArrow=open;html=1;edgeStyle=orthogonalEdgeStyle;rounded=0;endFill=0;startSize=6;endSize=2;strokeColor=#FFFFFF;fontFamily=Manrope;fontSource=https%3A%2F%2Ffonts.googleapis.com%2Fcss%3Ffamily%3DManrope;" parent="Shn82EJDHSnE-vzaOmSC-31" edge="1">
          <mxGeometry width="50" height="50" relative="1" as="geometry">
            <mxPoint x="3" y="12" as="sourcePoint" />
            <mxPoint x="11" y="3" as="targetPoint" />
            <Array as="points">
              <mxPoint x="11" y="12" />
            </Array>
          </mxGeometry>
        </mxCell>
        <mxCell id="Shn82EJDHSnE-vzaOmSC-34" value="" style="endArrow=open;html=1;edgeStyle=orthogonalEdgeStyle;rounded=0;endFill=0;startSize=6;endSize=2;strokeColor=#FFFFFF;fontFamily=Manrope;fontSource=https%3A%2F%2Ffonts.googleapis.com%2Fcss%3Ffamily%3DManrope;" parent="Shn82EJDHSnE-vzaOmSC-31" edge="1">
          <mxGeometry width="50" height="50" relative="1" as="geometry">
            <mxPoint x="11" y="27" as="sourcePoint" />
            <mxPoint x="3" y="19" as="targetPoint" />
            <Array as="points">
              <mxPoint x="11" y="19" />
            </Array>
          </mxGeometry>
        </mxCell>
        <mxCell id="Shn82EJDHSnE-vzaOmSC-35" value="" style="endArrow=open;html=1;edgeStyle=orthogonalEdgeStyle;rounded=0;endFill=0;startSize=6;endSize=2;strokeColor=#FFFFFF;fontFamily=Manrope;fontSource=https%3A%2F%2Ffonts.googleapis.com%2Fcss%3Ffamily%3DManrope;" parent="Shn82EJDHSnE-vzaOmSC-31" edge="1">
          <mxGeometry width="50" height="50" relative="1" as="geometry">
            <mxPoint x="18" y="3" as="sourcePoint" />
            <mxPoint x="27" y="12" as="targetPoint" />
            <Array as="points">
              <mxPoint x="18" y="12" />
            </Array>
          </mxGeometry>
        </mxCell>
        <mxCell id="Shn82EJDHSnE-vzaOmSC-36" value="" style="endArrow=open;html=1;edgeStyle=orthogonalEdgeStyle;rounded=0;endFill=0;startSize=6;endSize=2;strokeColor=#FFFFFF;fontFamily=Manrope;fontSource=https%3A%2F%2Ffonts.googleapis.com%2Fcss%3Ffamily%3DManrope;" parent="Shn82EJDHSnE-vzaOmSC-31" edge="1">
          <mxGeometry width="50" height="50" relative="1" as="geometry">
            <mxPoint x="27" y="19" as="sourcePoint" />
            <mxPoint x="18" y="27" as="targetPoint" />
            <Array as="points">
              <mxPoint x="18" y="19" />
            </Array>
          </mxGeometry>
        </mxCell>
        <mxCell id="Shn82EJDHSnE-vzaOmSC-37" value="" style="group;fontFamily=Manrope;fontSource=https%3A%2F%2Ffonts.googleapis.com%2Fcss%3Ffamily%3DManrope;" parent="1" vertex="1" connectable="0">
          <mxGeometry x="417" y="326" width="30" height="30" as="geometry" />
        </mxCell>
        <mxCell id="Shn82EJDHSnE-vzaOmSC-38" value="" style="whiteSpace=wrap;html=1;aspect=fixed;fillColor=#001135;strokeColor=none;connectable=1;allowArrows=1;fontFamily=Manrope;fontSource=https%3A%2F%2Ffonts.googleapis.com%2Fcss%3Ffamily%3DManrope;" parent="Shn82EJDHSnE-vzaOmSC-37" vertex="1">
          <mxGeometry width="30" height="30" as="geometry" />
        </mxCell>
        <mxCell id="Shn82EJDHSnE-vzaOmSC-39" value="" style="endArrow=open;html=1;edgeStyle=orthogonalEdgeStyle;rounded=0;endFill=0;startSize=6;endSize=2;strokeColor=#FFFFFF;fontFamily=Manrope;fontSource=https%3A%2F%2Ffonts.googleapis.com%2Fcss%3Ffamily%3DManrope;" parent="Shn82EJDHSnE-vzaOmSC-37" edge="1">
          <mxGeometry width="50" height="50" relative="1" as="geometry">
            <mxPoint x="3" y="12" as="sourcePoint" />
            <mxPoint x="11" y="3" as="targetPoint" />
            <Array as="points">
              <mxPoint x="11" y="12" />
            </Array>
          </mxGeometry>
        </mxCell>
        <mxCell id="Shn82EJDHSnE-vzaOmSC-40" value="" style="endArrow=open;html=1;edgeStyle=orthogonalEdgeStyle;rounded=0;endFill=0;startSize=6;endSize=2;strokeColor=#FFFFFF;fontFamily=Manrope;fontSource=https%3A%2F%2Ffonts.googleapis.com%2Fcss%3Ffamily%3DManrope;" parent="Shn82EJDHSnE-vzaOmSC-37" edge="1">
          <mxGeometry width="50" height="50" relative="1" as="geometry">
            <mxPoint x="11" y="27" as="sourcePoint" />
            <mxPoint x="3" y="19" as="targetPoint" />
            <Array as="points">
              <mxPoint x="11" y="19" />
            </Array>
          </mxGeometry>
        </mxCell>
        <mxCell id="Shn82EJDHSnE-vzaOmSC-41" value="" style="endArrow=open;html=1;edgeStyle=orthogonalEdgeStyle;rounded=0;endFill=0;startSize=6;endSize=2;strokeColor=#FFFFFF;fontFamily=Manrope;fontSource=https%3A%2F%2Ffonts.googleapis.com%2Fcss%3Ffamily%3DManrope;" parent="Shn82EJDHSnE-vzaOmSC-37" edge="1">
          <mxGeometry width="50" height="50" relative="1" as="geometry">
            <mxPoint x="18" y="3" as="sourcePoint" />
            <mxPoint x="27" y="12" as="targetPoint" />
            <Array as="points">
              <mxPoint x="18" y="12" />
            </Array>
          </mxGeometry>
        </mxCell>
        <mxCell id="Shn82EJDHSnE-vzaOmSC-42" value="" style="endArrow=open;html=1;edgeStyle=orthogonalEdgeStyle;rounded=0;endFill=0;startSize=6;endSize=2;strokeColor=#FFFFFF;fontFamily=Manrope;fontSource=https%3A%2F%2Ffonts.googleapis.com%2Fcss%3Ffamily%3DManrope;" parent="Shn82EJDHSnE-vzaOmSC-37" edge="1">
          <mxGeometry width="50" height="50" relative="1" as="geometry">
            <mxPoint x="27" y="19" as="sourcePoint" />
            <mxPoint x="18" y="27" as="targetPoint" />
            <Array as="points">
              <mxPoint x="18" y="19" />
            </Array>
          </mxGeometry>
        </mxCell>
        <mxCell id="Shn82EJDHSnE-vzaOmSC-43" value="" style="group;fontFamily=Manrope;fontSource=https%3A%2F%2Ffonts.googleapis.com%2Fcss%3Ffamily%3DManrope;" parent="1" vertex="1" connectable="0">
          <mxGeometry x="395" y="272" width="30" height="30" as="geometry" />
        </mxCell>
        <mxCell id="Shn82EJDHSnE-vzaOmSC-44" value="" style="whiteSpace=wrap;html=1;aspect=fixed;fillColor=#001135;strokeColor=none;connectable=1;allowArrows=1;fontFamily=Manrope;fontSource=https%3A%2F%2Ffonts.googleapis.com%2Fcss%3Ffamily%3DManrope;" parent="Shn82EJDHSnE-vzaOmSC-43" vertex="1">
          <mxGeometry width="30" height="30" as="geometry" />
        </mxCell>
        <mxCell id="Shn82EJDHSnE-vzaOmSC-45" value="" style="endArrow=open;html=1;edgeStyle=orthogonalEdgeStyle;rounded=0;endFill=0;startSize=6;endSize=2;strokeColor=#FFFFFF;fontFamily=Manrope;fontSource=https%3A%2F%2Ffonts.googleapis.com%2Fcss%3Ffamily%3DManrope;" parent="Shn82EJDHSnE-vzaOmSC-43" edge="1">
          <mxGeometry width="50" height="50" relative="1" as="geometry">
            <mxPoint x="3" y="12" as="sourcePoint" />
            <mxPoint x="11" y="3" as="targetPoint" />
            <Array as="points">
              <mxPoint x="11" y="12" />
            </Array>
          </mxGeometry>
        </mxCell>
        <mxCell id="Shn82EJDHSnE-vzaOmSC-46" value="" style="endArrow=open;html=1;edgeStyle=orthogonalEdgeStyle;rounded=0;endFill=0;startSize=6;endSize=2;strokeColor=#FFFFFF;fontFamily=Manrope;fontSource=https%3A%2F%2Ffonts.googleapis.com%2Fcss%3Ffamily%3DManrope;" parent="Shn82EJDHSnE-vzaOmSC-43" edge="1">
          <mxGeometry width="50" height="50" relative="1" as="geometry">
            <mxPoint x="11" y="27" as="sourcePoint" />
            <mxPoint x="3" y="19" as="targetPoint" />
            <Array as="points">
              <mxPoint x="11" y="19" />
            </Array>
          </mxGeometry>
        </mxCell>
        <mxCell id="Shn82EJDHSnE-vzaOmSC-47" value="" style="endArrow=open;html=1;edgeStyle=orthogonalEdgeStyle;rounded=0;endFill=0;startSize=6;endSize=2;strokeColor=#FFFFFF;fontFamily=Manrope;fontSource=https%3A%2F%2Ffonts.googleapis.com%2Fcss%3Ffamily%3DManrope;" parent="Shn82EJDHSnE-vzaOmSC-43" edge="1">
          <mxGeometry width="50" height="50" relative="1" as="geometry">
            <mxPoint x="18" y="3" as="sourcePoint" />
            <mxPoint x="27" y="12" as="targetPoint" />
            <Array as="points">
              <mxPoint x="18" y="12" />
            </Array>
          </mxGeometry>
        </mxCell>
        <mxCell id="Shn82EJDHSnE-vzaOmSC-48" value="" style="endArrow=open;html=1;edgeStyle=orthogonalEdgeStyle;rounded=0;endFill=0;startSize=6;endSize=2;strokeColor=#FFFFFF;fontFamily=Manrope;fontSource=https%3A%2F%2Ffonts.googleapis.com%2Fcss%3Ffamily%3DManrope;" parent="Shn82EJDHSnE-vzaOmSC-43" edge="1">
          <mxGeometry width="50" height="50" relative="1" as="geometry">
            <mxPoint x="27" y="19" as="sourcePoint" />
            <mxPoint x="18" y="27" as="targetPoint" />
            <Array as="points">
              <mxPoint x="18" y="19" />
            </Array>
          </mxGeometry>
        </mxCell>
        <mxCell id="Shn82EJDHSnE-vzaOmSC-49" value="" style="group;fontFamily=Manrope;fontSource=https%3A%2F%2Ffonts.googleapis.com%2Fcss%3Ffamily%3DManrope;" parent="1" vertex="1" connectable="0">
          <mxGeometry x="337" y="272" width="30" height="30" as="geometry" />
        </mxCell>
        <mxCell id="Shn82EJDHSnE-vzaOmSC-50" value="" style="whiteSpace=wrap;html=1;aspect=fixed;fillColor=#001135;strokeColor=none;connectable=1;allowArrows=1;fontFamily=Manrope;fontSource=https%3A%2F%2Ffonts.googleapis.com%2Fcss%3Ffamily%3DManrope;" parent="Shn82EJDHSnE-vzaOmSC-49" vertex="1">
          <mxGeometry width="30" height="30" as="geometry" />
        </mxCell>
        <mxCell id="Shn82EJDHSnE-vzaOmSC-51" value="" style="endArrow=open;html=1;edgeStyle=orthogonalEdgeStyle;rounded=0;endFill=0;startSize=6;endSize=2;strokeColor=#FFFFFF;fontFamily=Manrope;fontSource=https%3A%2F%2Ffonts.googleapis.com%2Fcss%3Ffamily%3DManrope;" parent="Shn82EJDHSnE-vzaOmSC-49" edge="1">
          <mxGeometry width="50" height="50" relative="1" as="geometry">
            <mxPoint x="3" y="12" as="sourcePoint" />
            <mxPoint x="11" y="3" as="targetPoint" />
            <Array as="points">
              <mxPoint x="11" y="12" />
            </Array>
          </mxGeometry>
        </mxCell>
        <mxCell id="Shn82EJDHSnE-vzaOmSC-52" value="" style="endArrow=open;html=1;edgeStyle=orthogonalEdgeStyle;rounded=0;endFill=0;startSize=6;endSize=2;strokeColor=#FFFFFF;fontFamily=Manrope;fontSource=https%3A%2F%2Ffonts.googleapis.com%2Fcss%3Ffamily%3DManrope;" parent="Shn82EJDHSnE-vzaOmSC-49" edge="1">
          <mxGeometry width="50" height="50" relative="1" as="geometry">
            <mxPoint x="11" y="27" as="sourcePoint" />
            <mxPoint x="3" y="19" as="targetPoint" />
            <Array as="points">
              <mxPoint x="11" y="19" />
            </Array>
          </mxGeometry>
        </mxCell>
        <mxCell id="Shn82EJDHSnE-vzaOmSC-53" value="" style="endArrow=open;html=1;edgeStyle=orthogonalEdgeStyle;rounded=0;endFill=0;startSize=6;endSize=2;strokeColor=#FFFFFF;fontFamily=Manrope;fontSource=https%3A%2F%2Ffonts.googleapis.com%2Fcss%3Ffamily%3DManrope;" parent="Shn82EJDHSnE-vzaOmSC-49" edge="1">
          <mxGeometry width="50" height="50" relative="1" as="geometry">
            <mxPoint x="18" y="3" as="sourcePoint" />
            <mxPoint x="27" y="12" as="targetPoint" />
            <Array as="points">
              <mxPoint x="18" y="12" />
            </Array>
          </mxGeometry>
        </mxCell>
        <mxCell id="Shn82EJDHSnE-vzaOmSC-54" value="" style="endArrow=open;html=1;edgeStyle=orthogonalEdgeStyle;rounded=0;endFill=0;startSize=6;endSize=2;strokeColor=#FFFFFF;fontFamily=Manrope;fontSource=https%3A%2F%2Ffonts.googleapis.com%2Fcss%3Ffamily%3DManrope;" parent="Shn82EJDHSnE-vzaOmSC-49" edge="1">
          <mxGeometry width="50" height="50" relative="1" as="geometry">
            <mxPoint x="27" y="19" as="sourcePoint" />
            <mxPoint x="18" y="27" as="targetPoint" />
            <Array as="points">
              <mxPoint x="18" y="19" />
            </Array>
          </mxGeometry>
        </mxCell>
        <mxCell id="Shn82EJDHSnE-vzaOmSC-55" value="" style="group;fontFamily=Manrope;fontSource=https%3A%2F%2Ffonts.googleapis.com%2Fcss%3Ffamily%3DManrope;" parent="1" vertex="1" connectable="0">
          <mxGeometry x="246" y="272" width="30" height="30" as="geometry" />
        </mxCell>
        <mxCell id="Shn82EJDHSnE-vzaOmSC-56" value="" style="whiteSpace=wrap;html=1;aspect=fixed;fillColor=#001135;strokeColor=none;connectable=1;allowArrows=1;fontFamily=Manrope;fontSource=https%3A%2F%2Ffonts.googleapis.com%2Fcss%3Ffamily%3DManrope;" parent="Shn82EJDHSnE-vzaOmSC-55" vertex="1">
          <mxGeometry width="30" height="30" as="geometry" />
        </mxCell>
        <mxCell id="Shn82EJDHSnE-vzaOmSC-57" value="" style="endArrow=open;html=1;edgeStyle=orthogonalEdgeStyle;rounded=0;endFill=0;startSize=6;endSize=2;strokeColor=#FFFFFF;fontFamily=Manrope;fontSource=https%3A%2F%2Ffonts.googleapis.com%2Fcss%3Ffamily%3DManrope;" parent="Shn82EJDHSnE-vzaOmSC-55" edge="1">
          <mxGeometry width="50" height="50" relative="1" as="geometry">
            <mxPoint x="3" y="12" as="sourcePoint" />
            <mxPoint x="11" y="3" as="targetPoint" />
            <Array as="points">
              <mxPoint x="11" y="12" />
            </Array>
          </mxGeometry>
        </mxCell>
        <mxCell id="Shn82EJDHSnE-vzaOmSC-58" value="" style="endArrow=open;html=1;edgeStyle=orthogonalEdgeStyle;rounded=0;endFill=0;startSize=6;endSize=2;strokeColor=#FFFFFF;fontFamily=Manrope;fontSource=https%3A%2F%2Ffonts.googleapis.com%2Fcss%3Ffamily%3DManrope;" parent="Shn82EJDHSnE-vzaOmSC-55" edge="1">
          <mxGeometry width="50" height="50" relative="1" as="geometry">
            <mxPoint x="11" y="27" as="sourcePoint" />
            <mxPoint x="3" y="19" as="targetPoint" />
            <Array as="points">
              <mxPoint x="11" y="19" />
            </Array>
          </mxGeometry>
        </mxCell>
        <mxCell id="Shn82EJDHSnE-vzaOmSC-59" value="" style="endArrow=open;html=1;edgeStyle=orthogonalEdgeStyle;rounded=0;endFill=0;startSize=6;endSize=2;strokeColor=#FFFFFF;fontFamily=Manrope;fontSource=https%3A%2F%2Ffonts.googleapis.com%2Fcss%3Ffamily%3DManrope;" parent="Shn82EJDHSnE-vzaOmSC-55" edge="1">
          <mxGeometry width="50" height="50" relative="1" as="geometry">
            <mxPoint x="18" y="3" as="sourcePoint" />
            <mxPoint x="27" y="12" as="targetPoint" />
            <Array as="points">
              <mxPoint x="18" y="12" />
            </Array>
          </mxGeometry>
        </mxCell>
        <mxCell id="Shn82EJDHSnE-vzaOmSC-60" value="" style="endArrow=open;html=1;edgeStyle=orthogonalEdgeStyle;rounded=0;endFill=0;startSize=6;endSize=2;strokeColor=#FFFFFF;fontFamily=Manrope;fontSource=https%3A%2F%2Ffonts.googleapis.com%2Fcss%3Ffamily%3DManrope;" parent="Shn82EJDHSnE-vzaOmSC-55" edge="1">
          <mxGeometry width="50" height="50" relative="1" as="geometry">
            <mxPoint x="27" y="19" as="sourcePoint" />
            <mxPoint x="18" y="27" as="targetPoint" />
            <Array as="points">
              <mxPoint x="18" y="19" />
            </Array>
          </mxGeometry>
        </mxCell>
        <mxCell id="Shn82EJDHSnE-vzaOmSC-61" value="" style="group;fontFamily=Manrope;fontSource=https%3A%2F%2Ffonts.googleapis.com%2Fcss%3Ffamily%3DManrope;" parent="1" vertex="1" connectable="0">
          <mxGeometry x="188" y="272" width="30" height="30" as="geometry" />
        </mxCell>
        <mxCell id="Shn82EJDHSnE-vzaOmSC-62" value="" style="whiteSpace=wrap;html=1;aspect=fixed;fillColor=#001135;strokeColor=none;connectable=1;allowArrows=1;fontFamily=Manrope;fontSource=https%3A%2F%2Ffonts.googleapis.com%2Fcss%3Ffamily%3DManrope;" parent="Shn82EJDHSnE-vzaOmSC-61" vertex="1">
          <mxGeometry width="30" height="30" as="geometry" />
        </mxCell>
        <mxCell id="Shn82EJDHSnE-vzaOmSC-63" value="" style="endArrow=open;html=1;edgeStyle=orthogonalEdgeStyle;rounded=0;endFill=0;startSize=6;endSize=2;strokeColor=#FFFFFF;fontFamily=Manrope;fontSource=https%3A%2F%2Ffonts.googleapis.com%2Fcss%3Ffamily%3DManrope;" parent="Shn82EJDHSnE-vzaOmSC-61" edge="1">
          <mxGeometry width="50" height="50" relative="1" as="geometry">
            <mxPoint x="3" y="12" as="sourcePoint" />
            <mxPoint x="11" y="3" as="targetPoint" />
            <Array as="points">
              <mxPoint x="11" y="12" />
            </Array>
          </mxGeometry>
        </mxCell>
        <mxCell id="Shn82EJDHSnE-vzaOmSC-64" value="" style="endArrow=open;html=1;edgeStyle=orthogonalEdgeStyle;rounded=0;endFill=0;startSize=6;endSize=2;strokeColor=#FFFFFF;fontFamily=Manrope;fontSource=https%3A%2F%2Ffonts.googleapis.com%2Fcss%3Ffamily%3DManrope;" parent="Shn82EJDHSnE-vzaOmSC-61" edge="1">
          <mxGeometry width="50" height="50" relative="1" as="geometry">
            <mxPoint x="11" y="27" as="sourcePoint" />
            <mxPoint x="3" y="19" as="targetPoint" />
            <Array as="points">
              <mxPoint x="11" y="19" />
            </Array>
          </mxGeometry>
        </mxCell>
        <mxCell id="Shn82EJDHSnE-vzaOmSC-65" value="" style="endArrow=open;html=1;edgeStyle=orthogonalEdgeStyle;rounded=0;endFill=0;startSize=6;endSize=2;strokeColor=#FFFFFF;fontFamily=Manrope;fontSource=https%3A%2F%2Ffonts.googleapis.com%2Fcss%3Ffamily%3DManrope;" parent="Shn82EJDHSnE-vzaOmSC-61" edge="1">
          <mxGeometry width="50" height="50" relative="1" as="geometry">
            <mxPoint x="18" y="3" as="sourcePoint" />
            <mxPoint x="27" y="12" as="targetPoint" />
            <Array as="points">
              <mxPoint x="18" y="12" />
            </Array>
          </mxGeometry>
        </mxCell>
        <mxCell id="Shn82EJDHSnE-vzaOmSC-66" value="" style="endArrow=open;html=1;edgeStyle=orthogonalEdgeStyle;rounded=0;endFill=0;startSize=6;endSize=2;strokeColor=#FFFFFF;fontFamily=Manrope;fontSource=https%3A%2F%2Ffonts.googleapis.com%2Fcss%3Ffamily%3DManrope;" parent="Shn82EJDHSnE-vzaOmSC-61" edge="1">
          <mxGeometry width="50" height="50" relative="1" as="geometry">
            <mxPoint x="27" y="19" as="sourcePoint" />
            <mxPoint x="18" y="27" as="targetPoint" />
            <Array as="points">
              <mxPoint x="18" y="19" />
            </Array>
          </mxGeometry>
        </mxCell>
        <mxCell id="Shn82EJDHSnE-vzaOmSC-67" value="" style="group;fontFamily=Manrope;fontSource=https%3A%2F%2Ffonts.googleapis.com%2Fcss%3Ffamily%3DManrope;" parent="1" vertex="1" connectable="0">
          <mxGeometry x="322" y="216" width="30" height="30" as="geometry" />
        </mxCell>
        <mxCell id="Shn82EJDHSnE-vzaOmSC-68" value="" style="whiteSpace=wrap;html=1;aspect=fixed;fillColor=#001135;strokeColor=none;connectable=1;allowArrows=1;fontFamily=Manrope;fontSource=https%3A%2F%2Ffonts.googleapis.com%2Fcss%3Ffamily%3DManrope;" parent="Shn82EJDHSnE-vzaOmSC-67" vertex="1">
          <mxGeometry width="30" height="30" as="geometry" />
        </mxCell>
        <mxCell id="Shn82EJDHSnE-vzaOmSC-69" value="" style="endArrow=open;html=1;edgeStyle=orthogonalEdgeStyle;rounded=0;endFill=0;startSize=6;endSize=2;strokeColor=#FFFFFF;fontFamily=Manrope;fontSource=https%3A%2F%2Ffonts.googleapis.com%2Fcss%3Ffamily%3DManrope;" parent="Shn82EJDHSnE-vzaOmSC-67" edge="1">
          <mxGeometry width="50" height="50" relative="1" as="geometry">
            <mxPoint x="3" y="12" as="sourcePoint" />
            <mxPoint x="11" y="3" as="targetPoint" />
            <Array as="points">
              <mxPoint x="11" y="12" />
            </Array>
          </mxGeometry>
        </mxCell>
        <mxCell id="Shn82EJDHSnE-vzaOmSC-70" value="" style="endArrow=open;html=1;edgeStyle=orthogonalEdgeStyle;rounded=0;endFill=0;startSize=6;endSize=2;strokeColor=#FFFFFF;fontFamily=Manrope;fontSource=https%3A%2F%2Ffonts.googleapis.com%2Fcss%3Ffamily%3DManrope;" parent="Shn82EJDHSnE-vzaOmSC-67" edge="1">
          <mxGeometry width="50" height="50" relative="1" as="geometry">
            <mxPoint x="11" y="27" as="sourcePoint" />
            <mxPoint x="3" y="19" as="targetPoint" />
            <Array as="points">
              <mxPoint x="11" y="19" />
            </Array>
          </mxGeometry>
        </mxCell>
        <mxCell id="Shn82EJDHSnE-vzaOmSC-71" value="" style="endArrow=open;html=1;edgeStyle=orthogonalEdgeStyle;rounded=0;endFill=0;startSize=6;endSize=2;strokeColor=#FFFFFF;fontFamily=Manrope;fontSource=https%3A%2F%2Ffonts.googleapis.com%2Fcss%3Ffamily%3DManrope;" parent="Shn82EJDHSnE-vzaOmSC-67" edge="1">
          <mxGeometry width="50" height="50" relative="1" as="geometry">
            <mxPoint x="18" y="3" as="sourcePoint" />
            <mxPoint x="27" y="12" as="targetPoint" />
            <Array as="points">
              <mxPoint x="18" y="12" />
            </Array>
          </mxGeometry>
        </mxCell>
        <mxCell id="Shn82EJDHSnE-vzaOmSC-72" value="" style="endArrow=open;html=1;edgeStyle=orthogonalEdgeStyle;rounded=0;endFill=0;startSize=6;endSize=2;strokeColor=#FFFFFF;fontFamily=Manrope;fontSource=https%3A%2F%2Ffonts.googleapis.com%2Fcss%3Ffamily%3DManrope;" parent="Shn82EJDHSnE-vzaOmSC-67" edge="1">
          <mxGeometry width="50" height="50" relative="1" as="geometry">
            <mxPoint x="27" y="19" as="sourcePoint" />
            <mxPoint x="18" y="27" as="targetPoint" />
            <Array as="points">
              <mxPoint x="18" y="19" />
            </Array>
          </mxGeometry>
        </mxCell>
        <mxCell id="Shn82EJDHSnE-vzaOmSC-73" value="" style="group;fontFamily=Manrope;fontSource=https%3A%2F%2Ffonts.googleapis.com%2Fcss%3Ffamily%3DManrope;" parent="1" vertex="1" connectable="0">
          <mxGeometry x="258" y="216" width="30" height="30" as="geometry" />
        </mxCell>
        <mxCell id="Shn82EJDHSnE-vzaOmSC-74" value="" style="whiteSpace=wrap;html=1;aspect=fixed;fillColor=#001135;strokeColor=none;connectable=1;allowArrows=1;fontFamily=Manrope;fontSource=https%3A%2F%2Ffonts.googleapis.com%2Fcss%3Ffamily%3DManrope;" parent="Shn82EJDHSnE-vzaOmSC-73" vertex="1">
          <mxGeometry width="30" height="30" as="geometry" />
        </mxCell>
        <mxCell id="Shn82EJDHSnE-vzaOmSC-75" value="" style="endArrow=open;html=1;edgeStyle=orthogonalEdgeStyle;rounded=0;endFill=0;startSize=6;endSize=2;strokeColor=#FFFFFF;fontFamily=Manrope;fontSource=https%3A%2F%2Ffonts.googleapis.com%2Fcss%3Ffamily%3DManrope;" parent="Shn82EJDHSnE-vzaOmSC-73" edge="1">
          <mxGeometry width="50" height="50" relative="1" as="geometry">
            <mxPoint x="3" y="12" as="sourcePoint" />
            <mxPoint x="11" y="3" as="targetPoint" />
            <Array as="points">
              <mxPoint x="11" y="12" />
            </Array>
          </mxGeometry>
        </mxCell>
        <mxCell id="Shn82EJDHSnE-vzaOmSC-76" value="" style="endArrow=open;html=1;edgeStyle=orthogonalEdgeStyle;rounded=0;endFill=0;startSize=6;endSize=2;strokeColor=#FFFFFF;fontFamily=Manrope;fontSource=https%3A%2F%2Ffonts.googleapis.com%2Fcss%3Ffamily%3DManrope;" parent="Shn82EJDHSnE-vzaOmSC-73" edge="1">
          <mxGeometry width="50" height="50" relative="1" as="geometry">
            <mxPoint x="11" y="27" as="sourcePoint" />
            <mxPoint x="3" y="19" as="targetPoint" />
            <Array as="points">
              <mxPoint x="11" y="19" />
            </Array>
          </mxGeometry>
        </mxCell>
        <mxCell id="Shn82EJDHSnE-vzaOmSC-77" value="" style="endArrow=open;html=1;edgeStyle=orthogonalEdgeStyle;rounded=0;endFill=0;startSize=6;endSize=2;strokeColor=#FFFFFF;fontFamily=Manrope;fontSource=https%3A%2F%2Ffonts.googleapis.com%2Fcss%3Ffamily%3DManrope;" parent="Shn82EJDHSnE-vzaOmSC-73" edge="1">
          <mxGeometry width="50" height="50" relative="1" as="geometry">
            <mxPoint x="18" y="3" as="sourcePoint" />
            <mxPoint x="27" y="12" as="targetPoint" />
            <Array as="points">
              <mxPoint x="18" y="12" />
            </Array>
          </mxGeometry>
        </mxCell>
        <mxCell id="Shn82EJDHSnE-vzaOmSC-78" value="" style="endArrow=open;html=1;edgeStyle=orthogonalEdgeStyle;rounded=0;endFill=0;startSize=6;endSize=2;strokeColor=#FFFFFF;fontFamily=Manrope;fontSource=https%3A%2F%2Ffonts.googleapis.com%2Fcss%3Ffamily%3DManrope;" parent="Shn82EJDHSnE-vzaOmSC-73" edge="1">
          <mxGeometry width="50" height="50" relative="1" as="geometry">
            <mxPoint x="27" y="19" as="sourcePoint" />
            <mxPoint x="18" y="27" as="targetPoint" />
            <Array as="points">
              <mxPoint x="18" y="19" />
            </Array>
          </mxGeometry>
        </mxCell>
        <mxCell id="Shn82EJDHSnE-vzaOmSC-79" value="3/5-stage CLOS topologies" style="text;html=1;align=left;verticalAlign=middle;resizable=0;points=[];autosize=1;fontSize=16;fontFamily=Manrope;rotation=0;fontSource=https%3A%2F%2Ffonts.googleapis.com%2Fcss%3Ffamily%3DManrope;fontColor=#001135;fontStyle=1" parent="1" vertex="1">
          <mxGeometry x="183" y="380" width="210" height="24" as="geometry" />
        </mxCell>
        <mxCell id="Shn82EJDHSnE-vzaOmSC-80" value="" style="group;fontFamily=Manrope;fontSource=https%3A%2F%2Ffonts.googleapis.com%2Fcss%3Ffamily%3DManrope;" parent="1" vertex="1" connectable="0">
          <mxGeometry x="619" y="240" width="30" height="30" as="geometry" />
        </mxCell>
        <mxCell id="Shn82EJDHSnE-vzaOmSC-81" value="" style="whiteSpace=wrap;html=1;aspect=fixed;fillColor=#001135;strokeColor=none;connectable=1;allowArrows=1;fontFamily=Manrope;fontSource=https%3A%2F%2Ffonts.googleapis.com%2Fcss%3Ffamily%3DManrope;" parent="Shn82EJDHSnE-vzaOmSC-80" vertex="1">
          <mxGeometry width="30" height="30" as="geometry" />
        </mxCell>
        <mxCell id="Shn82EJDHSnE-vzaOmSC-82" value="" style="endArrow=open;html=1;edgeStyle=orthogonalEdgeStyle;rounded=0;endFill=0;startSize=6;endSize=2;strokeColor=#FFFFFF;fontFamily=Manrope;fontSource=https%3A%2F%2Ffonts.googleapis.com%2Fcss%3Ffamily%3DManrope;" parent="Shn82EJDHSnE-vzaOmSC-80" edge="1">
          <mxGeometry width="50" height="50" relative="1" as="geometry">
            <mxPoint x="3" y="12" as="sourcePoint" />
            <mxPoint x="11" y="3" as="targetPoint" />
            <Array as="points">
              <mxPoint x="11" y="12" />
            </Array>
          </mxGeometry>
        </mxCell>
        <mxCell id="Shn82EJDHSnE-vzaOmSC-83" value="" style="endArrow=open;html=1;edgeStyle=orthogonalEdgeStyle;rounded=0;endFill=0;startSize=6;endSize=2;strokeColor=#FFFFFF;fontFamily=Manrope;fontSource=https%3A%2F%2Ffonts.googleapis.com%2Fcss%3Ffamily%3DManrope;" parent="Shn82EJDHSnE-vzaOmSC-80" edge="1">
          <mxGeometry width="50" height="50" relative="1" as="geometry">
            <mxPoint x="11" y="27" as="sourcePoint" />
            <mxPoint x="3" y="19" as="targetPoint" />
            <Array as="points">
              <mxPoint x="11" y="19" />
            </Array>
          </mxGeometry>
        </mxCell>
        <mxCell id="Shn82EJDHSnE-vzaOmSC-84" value="" style="endArrow=open;html=1;edgeStyle=orthogonalEdgeStyle;rounded=0;endFill=0;startSize=6;endSize=2;strokeColor=#FFFFFF;fontFamily=Manrope;fontSource=https%3A%2F%2Ffonts.googleapis.com%2Fcss%3Ffamily%3DManrope;" parent="Shn82EJDHSnE-vzaOmSC-80" edge="1">
          <mxGeometry width="50" height="50" relative="1" as="geometry">
            <mxPoint x="18" y="3" as="sourcePoint" />
            <mxPoint x="27" y="12" as="targetPoint" />
            <Array as="points">
              <mxPoint x="18" y="12" />
            </Array>
          </mxGeometry>
        </mxCell>
        <mxCell id="Shn82EJDHSnE-vzaOmSC-85" value="" style="endArrow=open;html=1;edgeStyle=orthogonalEdgeStyle;rounded=0;endFill=0;startSize=6;endSize=2;strokeColor=#FFFFFF;fontFamily=Manrope;fontSource=https%3A%2F%2Ffonts.googleapis.com%2Fcss%3Ffamily%3DManrope;" parent="Shn82EJDHSnE-vzaOmSC-80" edge="1">
          <mxGeometry width="50" height="50" relative="1" as="geometry">
            <mxPoint x="27" y="19" as="sourcePoint" />
            <mxPoint x="18" y="27" as="targetPoint" />
            <Array as="points">
              <mxPoint x="18" y="19" />
            </Array>
          </mxGeometry>
        </mxCell>
        <mxCell id="Shn82EJDHSnE-vzaOmSC-86" style="rounded=0;orthogonalLoop=1;jettySize=auto;html=1;exitX=0.25;exitY=0;exitDx=0;exitDy=0;entryX=0.25;entryY=1;entryDx=0;entryDy=0;startSize=6;endArrow=none;endFill=0;endSize=2;fontFamily=Manrope;fontSize=8;strokeColor=#98A2AE;fontSource=https%3A%2F%2Ffonts.googleapis.com%2Fcss%3Ffamily%3DManrope;" parent="1" edge="1">
          <mxGeometry relative="1" as="geometry">
            <mxPoint x="629.5" y="298" as="sourcePoint" />
            <mxPoint x="629.5" y="270" as="targetPoint" />
          </mxGeometry>
        </mxCell>
        <mxCell id="Shn82EJDHSnE-vzaOmSC-87" style="rounded=0;orthogonalLoop=1;jettySize=auto;html=1;exitX=0.5;exitY=0;exitDx=0;exitDy=0;entryX=0.5;entryY=1;entryDx=0;entryDy=0;startSize=6;endArrow=none;endFill=0;endSize=2;fontFamily=Manrope;fontSize=8;strokeColor=#98A2AE;fontSource=https%3A%2F%2Ffonts.googleapis.com%2Fcss%3Ffamily%3DManrope;" parent="1" edge="1">
          <mxGeometry relative="1" as="geometry">
            <mxPoint x="637" y="298" as="sourcePoint" />
            <mxPoint x="637" y="270" as="targetPoint" />
          </mxGeometry>
        </mxCell>
        <mxCell id="Shn82EJDHSnE-vzaOmSC-88" value="" style="group;fontFamily=Manrope;fontSource=https%3A%2F%2Ffonts.googleapis.com%2Fcss%3Ffamily%3DManrope;" parent="1" vertex="1" connectable="0">
          <mxGeometry x="678" y="298" width="30" height="30" as="geometry" />
        </mxCell>
        <mxCell id="Shn82EJDHSnE-vzaOmSC-89" value="" style="whiteSpace=wrap;html=1;aspect=fixed;fillColor=#001135;strokeColor=none;connectable=1;allowArrows=1;fontFamily=Manrope;fontSource=https%3A%2F%2Ffonts.googleapis.com%2Fcss%3Ffamily%3DManrope;" parent="Shn82EJDHSnE-vzaOmSC-88" vertex="1">
          <mxGeometry width="30" height="30" as="geometry" />
        </mxCell>
        <mxCell id="Shn82EJDHSnE-vzaOmSC-90" value="" style="endArrow=open;html=1;edgeStyle=orthogonalEdgeStyle;rounded=0;endFill=0;startSize=6;endSize=2;strokeColor=#FFFFFF;fontFamily=Manrope;fontSource=https%3A%2F%2Ffonts.googleapis.com%2Fcss%3Ffamily%3DManrope;" parent="Shn82EJDHSnE-vzaOmSC-88" edge="1">
          <mxGeometry width="50" height="50" relative="1" as="geometry">
            <mxPoint x="3" y="12" as="sourcePoint" />
            <mxPoint x="11" y="3" as="targetPoint" />
            <Array as="points">
              <mxPoint x="11" y="12" />
            </Array>
          </mxGeometry>
        </mxCell>
        <mxCell id="Shn82EJDHSnE-vzaOmSC-91" value="" style="endArrow=open;html=1;edgeStyle=orthogonalEdgeStyle;rounded=0;endFill=0;startSize=6;endSize=2;strokeColor=#FFFFFF;fontFamily=Manrope;fontSource=https%3A%2F%2Ffonts.googleapis.com%2Fcss%3Ffamily%3DManrope;" parent="Shn82EJDHSnE-vzaOmSC-88" edge="1">
          <mxGeometry width="50" height="50" relative="1" as="geometry">
            <mxPoint x="11" y="27" as="sourcePoint" />
            <mxPoint x="3" y="19" as="targetPoint" />
            <Array as="points">
              <mxPoint x="11" y="19" />
            </Array>
          </mxGeometry>
        </mxCell>
        <mxCell id="Shn82EJDHSnE-vzaOmSC-92" value="" style="endArrow=open;html=1;edgeStyle=orthogonalEdgeStyle;rounded=0;endFill=0;startSize=6;endSize=2;strokeColor=#FFFFFF;fontFamily=Manrope;fontSource=https%3A%2F%2Ffonts.googleapis.com%2Fcss%3Ffamily%3DManrope;" parent="Shn82EJDHSnE-vzaOmSC-88" edge="1">
          <mxGeometry width="50" height="50" relative="1" as="geometry">
            <mxPoint x="18" y="3" as="sourcePoint" />
            <mxPoint x="27" y="12" as="targetPoint" />
            <Array as="points">
              <mxPoint x="18" y="12" />
            </Array>
          </mxGeometry>
        </mxCell>
        <mxCell id="Shn82EJDHSnE-vzaOmSC-93" value="" style="endArrow=open;html=1;edgeStyle=orthogonalEdgeStyle;rounded=0;endFill=0;startSize=6;endSize=2;strokeColor=#FFFFFF;fontFamily=Manrope;fontSource=https%3A%2F%2Ffonts.googleapis.com%2Fcss%3Ffamily%3DManrope;" parent="Shn82EJDHSnE-vzaOmSC-88" edge="1">
          <mxGeometry width="50" height="50" relative="1" as="geometry">
            <mxPoint x="27" y="19" as="sourcePoint" />
            <mxPoint x="18" y="27" as="targetPoint" />
            <Array as="points">
              <mxPoint x="18" y="19" />
            </Array>
          </mxGeometry>
        </mxCell>
        <mxCell id="Shn82EJDHSnE-vzaOmSC-94" style="rounded=0;orthogonalLoop=1;jettySize=auto;html=1;exitX=1;exitY=0.5;exitDx=0;exitDy=0;entryX=0;entryY=0.5;entryDx=0;entryDy=0;startSize=6;endArrow=none;endFill=0;endSize=2;fontFamily=Manrope;fontSize=8;strokeColor=#98A2AE;fontSource=https%3A%2F%2Ffonts.googleapis.com%2Fcss%3Ffamily%3DManrope;" parent="1" source="Shn82EJDHSnE-vzaOmSC-114" target="Shn82EJDHSnE-vzaOmSC-89" edge="1">
          <mxGeometry relative="1" as="geometry">
            <mxPoint x="638" y="299" as="sourcePoint" />
            <mxPoint x="638" y="271" as="targetPoint" />
          </mxGeometry>
        </mxCell>
        <mxCell id="Shn82EJDHSnE-vzaOmSC-95" value="" style="group;fontFamily=Manrope;fontSource=https%3A%2F%2Ffonts.googleapis.com%2Fcss%3Ffamily%3DManrope;" parent="1" vertex="1" connectable="0">
          <mxGeometry x="521" y="240" width="82" height="30" as="geometry" />
        </mxCell>
        <mxCell id="Shn82EJDHSnE-vzaOmSC-96" value="" style="whiteSpace=wrap;html=1;aspect=fixed;fillColor=#001135;strokeColor=none;connectable=1;allowArrows=1;fontFamily=Manrope;fontSource=https%3A%2F%2Ffonts.googleapis.com%2Fcss%3Ffamily%3DManrope;" parent="Shn82EJDHSnE-vzaOmSC-95" vertex="1">
          <mxGeometry width="30" height="30" as="geometry" />
        </mxCell>
        <mxCell id="Shn82EJDHSnE-vzaOmSC-97" value="" style="endArrow=open;html=1;edgeStyle=orthogonalEdgeStyle;rounded=0;endFill=0;startSize=6;endSize=2;strokeColor=#FFFFFF;fontFamily=Manrope;fontSource=https%3A%2F%2Ffonts.googleapis.com%2Fcss%3Ffamily%3DManrope;" parent="Shn82EJDHSnE-vzaOmSC-95" edge="1">
          <mxGeometry width="50" height="50" relative="1" as="geometry">
            <mxPoint x="3" y="12" as="sourcePoint" />
            <mxPoint x="11" y="3" as="targetPoint" />
            <Array as="points">
              <mxPoint x="11" y="12" />
            </Array>
          </mxGeometry>
        </mxCell>
        <mxCell id="Shn82EJDHSnE-vzaOmSC-98" value="" style="endArrow=open;html=1;edgeStyle=orthogonalEdgeStyle;rounded=0;endFill=0;startSize=6;endSize=2;strokeColor=#FFFFFF;fontFamily=Manrope;fontSource=https%3A%2F%2Ffonts.googleapis.com%2Fcss%3Ffamily%3DManrope;" parent="Shn82EJDHSnE-vzaOmSC-95" edge="1">
          <mxGeometry width="50" height="50" relative="1" as="geometry">
            <mxPoint x="11" y="27" as="sourcePoint" />
            <mxPoint x="3" y="19" as="targetPoint" />
            <Array as="points">
              <mxPoint x="11" y="19" />
            </Array>
          </mxGeometry>
        </mxCell>
        <mxCell id="Shn82EJDHSnE-vzaOmSC-99" value="" style="endArrow=open;html=1;edgeStyle=orthogonalEdgeStyle;rounded=0;endFill=0;startSize=6;endSize=2;strokeColor=#FFFFFF;fontFamily=Manrope;fontSource=https%3A%2F%2Ffonts.googleapis.com%2Fcss%3Ffamily%3DManrope;" parent="Shn82EJDHSnE-vzaOmSC-95" edge="1">
          <mxGeometry width="50" height="50" relative="1" as="geometry">
            <mxPoint x="18" y="3" as="sourcePoint" />
            <mxPoint x="27" y="12" as="targetPoint" />
            <Array as="points">
              <mxPoint x="18" y="12" />
            </Array>
          </mxGeometry>
        </mxCell>
        <mxCell id="Shn82EJDHSnE-vzaOmSC-100" value="" style="endArrow=open;html=1;edgeStyle=orthogonalEdgeStyle;rounded=0;endFill=0;startSize=6;endSize=2;strokeColor=#FFFFFF;fontFamily=Manrope;fontSource=https%3A%2F%2Ffonts.googleapis.com%2Fcss%3Ffamily%3DManrope;" parent="Shn82EJDHSnE-vzaOmSC-95" edge="1">
          <mxGeometry width="50" height="50" relative="1" as="geometry">
            <mxPoint x="27" y="19" as="sourcePoint" />
            <mxPoint x="18" y="27" as="targetPoint" />
            <Array as="points">
              <mxPoint x="18" y="19" />
            </Array>
          </mxGeometry>
        </mxCell>
        <mxCell id="Shn82EJDHSnE-vzaOmSC-101" value="" style="group;fontFamily=Manrope;fontSource=https%3A%2F%2Ffonts.googleapis.com%2Fcss%3Ffamily%3DManrope;" parent="1" vertex="1" connectable="0">
          <mxGeometry x="521" y="298" width="30" height="30" as="geometry" />
        </mxCell>
        <mxCell id="Shn82EJDHSnE-vzaOmSC-102" value="" style="whiteSpace=wrap;html=1;aspect=fixed;fillColor=#001135;strokeColor=none;connectable=1;allowArrows=1;fontFamily=Manrope;fontSource=https%3A%2F%2Ffonts.googleapis.com%2Fcss%3Ffamily%3DManrope;" parent="Shn82EJDHSnE-vzaOmSC-101" vertex="1">
          <mxGeometry width="30" height="30" as="geometry" />
        </mxCell>
        <mxCell id="Shn82EJDHSnE-vzaOmSC-103" value="" style="endArrow=open;html=1;edgeStyle=orthogonalEdgeStyle;rounded=0;endFill=0;startSize=6;endSize=2;strokeColor=#FFFFFF;fontFamily=Manrope;fontSource=https%3A%2F%2Ffonts.googleapis.com%2Fcss%3Ffamily%3DManrope;" parent="Shn82EJDHSnE-vzaOmSC-101" edge="1">
          <mxGeometry width="50" height="50" relative="1" as="geometry">
            <mxPoint x="3" y="12" as="sourcePoint" />
            <mxPoint x="11" y="3" as="targetPoint" />
            <Array as="points">
              <mxPoint x="11" y="12" />
            </Array>
          </mxGeometry>
        </mxCell>
        <mxCell id="Shn82EJDHSnE-vzaOmSC-104" value="" style="endArrow=open;html=1;edgeStyle=orthogonalEdgeStyle;rounded=0;endFill=0;startSize=6;endSize=2;strokeColor=#FFFFFF;fontFamily=Manrope;fontSource=https%3A%2F%2Ffonts.googleapis.com%2Fcss%3Ffamily%3DManrope;" parent="Shn82EJDHSnE-vzaOmSC-101" edge="1">
          <mxGeometry width="50" height="50" relative="1" as="geometry">
            <mxPoint x="11" y="27" as="sourcePoint" />
            <mxPoint x="3" y="19" as="targetPoint" />
            <Array as="points">
              <mxPoint x="11" y="19" />
            </Array>
          </mxGeometry>
        </mxCell>
        <mxCell id="Shn82EJDHSnE-vzaOmSC-105" value="" style="endArrow=open;html=1;edgeStyle=orthogonalEdgeStyle;rounded=0;endFill=0;startSize=6;endSize=2;strokeColor=#FFFFFF;fontFamily=Manrope;fontSource=https%3A%2F%2Ffonts.googleapis.com%2Fcss%3Ffamily%3DManrope;" parent="Shn82EJDHSnE-vzaOmSC-101" edge="1">
          <mxGeometry width="50" height="50" relative="1" as="geometry">
            <mxPoint x="18" y="3" as="sourcePoint" />
            <mxPoint x="27" y="12" as="targetPoint" />
            <Array as="points">
              <mxPoint x="18" y="12" />
            </Array>
          </mxGeometry>
        </mxCell>
        <mxCell id="Shn82EJDHSnE-vzaOmSC-106" value="" style="endArrow=open;html=1;edgeStyle=orthogonalEdgeStyle;rounded=0;endFill=0;startSize=6;endSize=2;strokeColor=#FFFFFF;fontFamily=Manrope;fontSource=https%3A%2F%2Ffonts.googleapis.com%2Fcss%3Ffamily%3DManrope;" parent="Shn82EJDHSnE-vzaOmSC-101" edge="1">
          <mxGeometry width="50" height="50" relative="1" as="geometry">
            <mxPoint x="27" y="19" as="sourcePoint" />
            <mxPoint x="18" y="27" as="targetPoint" />
            <Array as="points">
              <mxPoint x="18" y="19" />
            </Array>
          </mxGeometry>
        </mxCell>
        <mxCell id="Shn82EJDHSnE-vzaOmSC-107" style="rounded=0;orthogonalLoop=1;jettySize=auto;html=1;exitX=0.5;exitY=0;exitDx=0;exitDy=0;entryX=0.5;entryY=1;entryDx=0;entryDy=0;startSize=6;endArrow=none;endFill=0;endSize=2;fontFamily=Manrope;fontSize=8;strokeColor=#98A2AE;fontSource=https%3A%2F%2Ffonts.googleapis.com%2Fcss%3Ffamily%3DManrope;" parent="1" source="Shn82EJDHSnE-vzaOmSC-102" target="Shn82EJDHSnE-vzaOmSC-96" edge="1">
          <mxGeometry relative="1" as="geometry">
            <mxPoint x="555" y="296" as="sourcePoint" />
            <mxPoint x="555" y="268" as="targetPoint" />
          </mxGeometry>
        </mxCell>
        <mxCell id="Shn82EJDHSnE-vzaOmSC-108" value="Arbitrary topologies" style="text;html=1;align=left;verticalAlign=middle;resizable=0;points=[];autosize=1;fontSize=16;fontFamily=Manrope;rotation=0;fontSource=https%3A%2F%2Ffonts.googleapis.com%2Fcss%3Ffamily%3DManrope;fontColor=#001135;fontStyle=1" parent="1" vertex="1">
          <mxGeometry x="559" y="380.0000000000001" width="157" height="24" as="geometry" />
        </mxCell>
        <mxCell id="Shn82EJDHSnE-vzaOmSC-109" value="SR Linux" style="text;html=1;align=left;verticalAlign=middle;resizable=0;points=[];autosize=1;fontSize=10;fontFamily=Manrope;rotation=0;fontSource=https%3A%2F%2Ffonts.googleapis.com%2Fcss%3Ffamily%3DManrope;fontColor=#001135;fontStyle=0" parent="1" vertex="1">
          <mxGeometry x="512" y="328" width="50" height="17" as="geometry" />
        </mxCell>
        <mxCell id="Shn82EJDHSnE-vzaOmSC-110" value="SR Linux" style="text;html=1;align=left;verticalAlign=middle;resizable=0;points=[];autosize=1;fontSize=10;fontFamily=Manrope;rotation=0;fontSource=https%3A%2F%2Ffonts.googleapis.com%2Fcss%3Ffamily%3DManrope;fontColor=#001135;fontStyle=0" parent="1" vertex="1">
          <mxGeometry x="513" y="223" width="50" height="17" as="geometry" />
        </mxCell>
        <mxCell id="Shn82EJDHSnE-vzaOmSC-111" value="SR Linux" style="text;html=1;align=left;verticalAlign=middle;resizable=0;points=[];autosize=1;fontSize=10;fontFamily=Manrope;rotation=0;fontSource=https%3A%2F%2Ffonts.googleapis.com%2Fcss%3Ffamily%3DManrope;fontColor=#001135;fontStyle=0" parent="1" vertex="1">
          <mxGeometry x="611" y="222.5" width="50" height="17" as="geometry" />
        </mxCell>
        <mxCell id="Shn82EJDHSnE-vzaOmSC-112" value="Arista cEOS" style="text;html=1;align=left;verticalAlign=middle;resizable=0;points=[];autosize=1;fontSize=10;fontFamily=Manrope;rotation=0;fontSource=https%3A%2F%2Ffonts.googleapis.com%2Fcss%3Ffamily%3DManrope;fontColor=#001135;fontStyle=0" parent="1" vertex="1">
          <mxGeometry x="604" y="328" width="64" height="17" as="geometry" />
        </mxCell>
        <mxCell id="Shn82EJDHSnE-vzaOmSC-113" value="SR Linux" style="text;html=1;align=left;verticalAlign=middle;resizable=0;points=[];autosize=1;fontSize=10;fontFamily=Manrope;rotation=0;fontSource=https%3A%2F%2Ffonts.googleapis.com%2Fcss%3Ffamily%3DManrope;fontColor=#001135;fontStyle=0" parent="1" vertex="1">
          <mxGeometry x="670" y="281" width="50" height="17" as="geometry" />
        </mxCell>
        <mxCell id="Shn82EJDHSnE-vzaOmSC-114" value="" style="whiteSpace=wrap;html=1;aspect=fixed;strokeColor=none;connectable=1;allowArrows=1;fillColor=#BEC8D2;fontFamily=Manrope;fontSource=https%3A%2F%2Ffonts.googleapis.com%2Fcss%3Ffamily%3DManrope;" parent="1" vertex="1">
          <mxGeometry x="619" y="298" width="30" height="30" as="geometry" />
        </mxCell>
        <mxCell id="Shn82EJDHSnE-vzaOmSC-115" value="" style="endArrow=open;html=1;edgeStyle=orthogonalEdgeStyle;rounded=0;endFill=0;startSize=6;endSize=2;strokeColor=#FFFFFF;fontFamily=Manrope;fontSource=https%3A%2F%2Ffonts.googleapis.com%2Fcss%3Ffamily%3DManrope;" parent="1" edge="1">
          <mxGeometry width="50" height="50" relative="1" as="geometry">
            <mxPoint x="622" y="310" as="sourcePoint" />
            <mxPoint x="630" y="301" as="targetPoint" />
            <Array as="points">
              <mxPoint x="630" y="310" />
            </Array>
          </mxGeometry>
        </mxCell>
        <mxCell id="Shn82EJDHSnE-vzaOmSC-116" value="" style="endArrow=open;html=1;edgeStyle=orthogonalEdgeStyle;rounded=0;endFill=0;startSize=6;endSize=2;strokeColor=#FFFFFF;fontFamily=Manrope;fontSource=https%3A%2F%2Ffonts.googleapis.com%2Fcss%3Ffamily%3DManrope;" parent="1" edge="1">
          <mxGeometry width="50" height="50" relative="1" as="geometry">
            <mxPoint x="630" y="325" as="sourcePoint" />
            <mxPoint x="622" y="317" as="targetPoint" />
            <Array as="points">
              <mxPoint x="630" y="317" />
            </Array>
          </mxGeometry>
        </mxCell>
        <mxCell id="Shn82EJDHSnE-vzaOmSC-117" value="" style="endArrow=open;html=1;edgeStyle=orthogonalEdgeStyle;rounded=0;endFill=0;startSize=6;endSize=2;strokeColor=#FFFFFF;fontFamily=Manrope;fontSource=https%3A%2F%2Ffonts.googleapis.com%2Fcss%3Ffamily%3DManrope;" parent="1" edge="1">
          <mxGeometry width="50" height="50" relative="1" as="geometry">
            <mxPoint x="637" y="301" as="sourcePoint" />
            <mxPoint x="646" y="310" as="targetPoint" />
            <Array as="points">
              <mxPoint x="637" y="310" />
            </Array>
          </mxGeometry>
        </mxCell>
        <mxCell id="Shn82EJDHSnE-vzaOmSC-118" value="" style="endArrow=open;html=1;edgeStyle=orthogonalEdgeStyle;rounded=0;endFill=0;startSize=6;endSize=2;strokeColor=#FFFFFF;fontFamily=Manrope;fontSource=https%3A%2F%2Ffonts.googleapis.com%2Fcss%3Ffamily%3DManrope;" parent="1" edge="1">
          <mxGeometry width="50" height="50" relative="1" as="geometry">
            <mxPoint x="646" y="317" as="sourcePoint" />
            <mxPoint x="637" y="325" as="targetPoint" />
            <Array as="points">
              <mxPoint x="637" y="317" />
            </Array>
          </mxGeometry>
        </mxCell>
        <mxCell id="Shn82EJDHSnE-vzaOmSC-119" style="rounded=0;orthogonalLoop=1;jettySize=auto;html=1;entryX=0.5;entryY=1;entryDx=0;entryDy=0;startSize=6;endArrow=none;endFill=0;endSize=2;fontFamily=Manrope;fontSize=8;strokeColor=#98A2AE;dashed=1;fontSource=https%3A%2F%2Ffonts.googleapis.com%2Fcss%3Ffamily%3DManrope;" parent="1" edge="1">
          <mxGeometry relative="1" as="geometry">
            <mxPoint x="484" y="392" as="sourcePoint" />
            <mxPoint x="484" y="203" as="targetPoint" />
          </mxGeometry>
        </mxCell>
      </root>
    </mxGraphModel>
  </diagram>
  <diagram name="[1] topo with client containers" id="_bdF0sp_xfnoS2sq8HEf">
    <mxGraphModel dx="1415" dy="759" grid="1" gridSize="1" guides="1" tooltips="1" connect="1" arrows="1" fold="1" page="1" pageScale="1" pageWidth="827" pageHeight="1169" math="0" shadow="0">
      <root>
        <mxCell id="Dv9-QlDLPCMpULR3lJqR-0" />
        <mxCell id="Dv9-QlDLPCMpULR3lJqR-1" parent="Dv9-QlDLPCMpULR3lJqR-0" />
        <mxCell id="Dv9-QlDLPCMpULR3lJqR-108" style="rounded=0;orthogonalLoop=1;jettySize=auto;html=1;entryX=0;entryY=0.5;entryDx=0;entryDy=0;startSize=6;endArrow=none;endFill=0;endSize=2;fontFamily=Manrope;fontSize=8;strokeColor=#98A2AE;fontSource=https%3A%2F%2Ffonts.googleapis.com%2Fcss%3Ffamily%3DManrope;exitX=1;exitY=0.5;exitDx=0;exitDy=0;" edge="1" parent="Dv9-QlDLPCMpULR3lJqR-1" source="Dv9-QlDLPCMpULR3lJqR-131" target="Dv9-QlDLPCMpULR3lJqR-97">
          <mxGeometry relative="1" as="geometry">
            <mxPoint x="452" y="295" as="sourcePoint" />
            <mxPoint x="555" y="268" as="targetPoint" />
          </mxGeometry>
        </mxCell>
        <mxCell id="Dv9-QlDLPCMpULR3lJqR-111" value="SR Linux" style="text;html=1;align=center;verticalAlign=middle;resizable=0;points=[];autosize=1;fontSize=12;fontFamily=Manrope;rotation=0;fontSource=https%3A%2F%2Ffonts.googleapis.com%2Fcss%3Ffamily%3DManrope;fontColor=#001135;fontStyle=0" vertex="1" parent="Dv9-QlDLPCMpULR3lJqR-1">
          <mxGeometry x="360" y="199" width="58" height="19" as="geometry" />
        </mxCell>
        <mxCell id="Dv9-QlDLPCMpULR3lJqR-128" value="" style="group" vertex="1" connectable="0" parent="Dv9-QlDLPCMpULR3lJqR-1">
          <mxGeometry x="469" y="218" width="50" height="50" as="geometry" />
        </mxCell>
        <mxCell id="Dv9-QlDLPCMpULR3lJqR-121" value="" style="group" vertex="1" connectable="0" parent="Dv9-QlDLPCMpULR3lJqR-128">
          <mxGeometry width="50" height="50" as="geometry" />
        </mxCell>
        <mxCell id="Dv9-QlDLPCMpULR3lJqR-97" value="" style="whiteSpace=wrap;html=1;aspect=fixed;fillColor=#001135;strokeColor=none;connectable=1;allowArrows=1;fontFamily=Manrope;fontSource=https%3A%2F%2Ffonts.googleapis.com%2Fcss%3Ffamily%3DManrope;" vertex="1" parent="Dv9-QlDLPCMpULR3lJqR-121">
          <mxGeometry width="50" height="50" as="geometry" />
        </mxCell>
        <mxCell id="Dv9-QlDLPCMpULR3lJqR-98" value="" style="endArrow=open;html=1;edgeStyle=orthogonalEdgeStyle;rounded=0;endFill=0;startSize=6;endSize=2;strokeColor=#FFFFFF;fontFamily=Manrope;fontSource=https%3A%2F%2Ffonts.googleapis.com%2Fcss%3Ffamily%3DManrope;" edge="1" parent="Dv9-QlDLPCMpULR3lJqR-121">
          <mxGeometry width="83.33333333333334" height="83.33333333333334" as="geometry">
            <mxPoint x="5" y="20" as="sourcePoint" />
            <mxPoint x="18.333333333333336" y="5" as="targetPoint" />
            <Array as="points">
              <mxPoint x="18.333333333333336" y="20" />
            </Array>
          </mxGeometry>
        </mxCell>
        <mxCell id="Dv9-QlDLPCMpULR3lJqR-99" value="" style="endArrow=open;html=1;edgeStyle=orthogonalEdgeStyle;rounded=0;endFill=0;startSize=6;endSize=2;strokeColor=#FFFFFF;fontFamily=Manrope;fontSource=https%3A%2F%2Ffonts.googleapis.com%2Fcss%3Ffamily%3DManrope;" edge="1" parent="Dv9-QlDLPCMpULR3lJqR-121">
          <mxGeometry width="83.33333333333334" height="83.33333333333334" as="geometry">
            <mxPoint x="18.333333333333336" y="45" as="sourcePoint" />
            <mxPoint x="5" y="31.666666666666668" as="targetPoint" />
            <Array as="points">
              <mxPoint x="18.333333333333336" y="31.666666666666668" />
            </Array>
          </mxGeometry>
        </mxCell>
        <mxCell id="Dv9-QlDLPCMpULR3lJqR-100" value="" style="endArrow=open;html=1;edgeStyle=orthogonalEdgeStyle;rounded=0;endFill=0;startSize=6;endSize=2;strokeColor=#FFFFFF;fontFamily=Manrope;fontSource=https%3A%2F%2Ffonts.googleapis.com%2Fcss%3Ffamily%3DManrope;" edge="1" parent="Dv9-QlDLPCMpULR3lJqR-121">
          <mxGeometry width="83.33333333333334" height="83.33333333333334" as="geometry">
            <mxPoint x="30" y="5" as="sourcePoint" />
            <mxPoint x="45" y="20" as="targetPoint" />
            <Array as="points">
              <mxPoint x="30" y="20" />
            </Array>
          </mxGeometry>
        </mxCell>
        <mxCell id="Dv9-QlDLPCMpULR3lJqR-101" value="" style="endArrow=open;html=1;edgeStyle=orthogonalEdgeStyle;rounded=0;endFill=0;startSize=6;endSize=2;strokeColor=#FFFFFF;fontFamily=Manrope;fontSource=https%3A%2F%2Ffonts.googleapis.com%2Fcss%3Ffamily%3DManrope;" edge="1" parent="Dv9-QlDLPCMpULR3lJqR-121">
          <mxGeometry width="83.33333333333334" height="83.33333333333334" as="geometry">
            <mxPoint x="45" y="31.666666666666668" as="sourcePoint" />
            <mxPoint x="30" y="45" as="targetPoint" />
            <Array as="points">
              <mxPoint x="30" y="31.666666666666668" />
            </Array>
          </mxGeometry>
        </mxCell>
        <mxCell id="Dv9-QlDLPCMpULR3lJqR-129" value="" style="group" vertex="1" connectable="0" parent="Dv9-QlDLPCMpULR3lJqR-1">
          <mxGeometry x="364" y="218" width="50" height="50" as="geometry" />
        </mxCell>
        <mxCell id="Dv9-QlDLPCMpULR3lJqR-130" value="" style="group" vertex="1" connectable="0" parent="Dv9-QlDLPCMpULR3lJqR-129">
          <mxGeometry width="50" height="50" as="geometry" />
        </mxCell>
        <mxCell id="Dv9-QlDLPCMpULR3lJqR-131" value="" style="whiteSpace=wrap;html=1;aspect=fixed;fillColor=#001135;strokeColor=none;connectable=1;allowArrows=1;fontFamily=Manrope;fontSource=https%3A%2F%2Ffonts.googleapis.com%2Fcss%3Ffamily%3DManrope;" vertex="1" parent="Dv9-QlDLPCMpULR3lJqR-130">
          <mxGeometry width="50" height="50" as="geometry" />
        </mxCell>
        <mxCell id="Dv9-QlDLPCMpULR3lJqR-132" value="" style="endArrow=open;html=1;edgeStyle=orthogonalEdgeStyle;rounded=0;endFill=0;startSize=6;endSize=2;strokeColor=#FFFFFF;fontFamily=Manrope;fontSource=https%3A%2F%2Ffonts.googleapis.com%2Fcss%3Ffamily%3DManrope;" edge="1" parent="Dv9-QlDLPCMpULR3lJqR-130">
          <mxGeometry width="83.33333333333334" height="83.33333333333334" as="geometry">
            <mxPoint x="5" y="20" as="sourcePoint" />
            <mxPoint x="18.333333333333336" y="5" as="targetPoint" />
            <Array as="points">
              <mxPoint x="18.333333333333336" y="20" />
            </Array>
          </mxGeometry>
        </mxCell>
        <mxCell id="Dv9-QlDLPCMpULR3lJqR-133" value="" style="endArrow=open;html=1;edgeStyle=orthogonalEdgeStyle;rounded=0;endFill=0;startSize=6;endSize=2;strokeColor=#FFFFFF;fontFamily=Manrope;fontSource=https%3A%2F%2Ffonts.googleapis.com%2Fcss%3Ffamily%3DManrope;" edge="1" parent="Dv9-QlDLPCMpULR3lJqR-130">
          <mxGeometry width="83.33333333333334" height="83.33333333333334" as="geometry">
            <mxPoint x="18.333333333333336" y="45" as="sourcePoint" />
            <mxPoint x="5" y="31.666666666666668" as="targetPoint" />
            <Array as="points">
              <mxPoint x="18.333333333333336" y="31.666666666666668" />
            </Array>
          </mxGeometry>
        </mxCell>
        <mxCell id="Dv9-QlDLPCMpULR3lJqR-134" value="" style="endArrow=open;html=1;edgeStyle=orthogonalEdgeStyle;rounded=0;endFill=0;startSize=6;endSize=2;strokeColor=#FFFFFF;fontFamily=Manrope;fontSource=https%3A%2F%2Ffonts.googleapis.com%2Fcss%3Ffamily%3DManrope;" edge="1" parent="Dv9-QlDLPCMpULR3lJqR-130">
          <mxGeometry width="83.33333333333334" height="83.33333333333334" as="geometry">
            <mxPoint x="30" y="5" as="sourcePoint" />
            <mxPoint x="45" y="20" as="targetPoint" />
            <Array as="points">
              <mxPoint x="30" y="20" />
            </Array>
          </mxGeometry>
        </mxCell>
        <mxCell id="Dv9-QlDLPCMpULR3lJqR-135" value="" style="endArrow=open;html=1;edgeStyle=orthogonalEdgeStyle;rounded=0;endFill=0;startSize=6;endSize=2;strokeColor=#FFFFFF;fontFamily=Manrope;fontSource=https%3A%2F%2Ffonts.googleapis.com%2Fcss%3Ffamily%3DManrope;" edge="1" parent="Dv9-QlDLPCMpULR3lJqR-130">
          <mxGeometry width="83.33333333333334" height="83.33333333333334" as="geometry">
            <mxPoint x="45" y="31.666666666666668" as="sourcePoint" />
            <mxPoint x="30" y="45" as="targetPoint" />
            <Array as="points">
              <mxPoint x="30" y="31.666666666666668" />
            </Array>
          </mxGeometry>
        </mxCell>
        <mxCell id="Dv9-QlDLPCMpULR3lJqR-136" value="SR Linux" style="text;html=1;align=center;verticalAlign=middle;resizable=0;points=[];autosize=1;fontSize=12;fontFamily=Manrope;rotation=0;fontSource=https%3A%2F%2Ffonts.googleapis.com%2Fcss%3Ffamily%3DManrope;fontColor=#001135;fontStyle=0" vertex="1" parent="Dv9-QlDLPCMpULR3lJqR-1">
          <mxGeometry x="465" y="199" width="58" height="19" as="geometry" />
        </mxCell>
        <mxCell id="Dv9-QlDLPCMpULR3lJqR-137" value="" style="shape=image;verticalLabelPosition=bottom;labelBackgroundColor=#ffffff;verticalAlign=top;aspect=fixed;imageAspect=0;image=data:image/svg+xml,PHN2ZyB4bWxucz0iaHR0cDovL3d3dy53My5vcmcvMjAwMC9zdmciIHhtbG5zOnhsaW5rPSJodHRwOi8vd3d3LnczLm9yZy8xOTk5L3hsaW5rIiB2aWV3Qm94PSIwIDAgNjUgNTciIGZpbGw9IiNmZmYiIGZpbGwtcnVsZT0iZXZlbm9kZCIgc3Ryb2tlPSIjMDAwIiBzdHJva2UtbGluZWNhcD0icm91bmQiIHN0cm9rZS1saW5lam9pbj0icm91bmQiPjx1c2UgeGxpbms6aHJlZj0iI0EiIHg9Ii41IiB5PSIuNSIvPjxzeW1ib2wgaWQ9IkEiIG92ZXJmbG93PSJ2aXNpYmxlIj48ZyBzdHJva2U9Im5vbmUiIGZpbGw9IiMwZDU5N2YiIGZpbGwtcnVsZT0ibm9uemVybyI+PHBhdGggZD0iTTIzLjI1MiAzNC41Mjd2LTYuNzQ1bC00Ljg1NSA0Ljg2NGMuNDc0LjMzMy45NjguNjM1IDEuNDguOTA2LjQ2My4yNDMuODcuNDM0IDEuMzAzLjU4YTcuOTcgNy45NyAwIDAgMCAxLjEzLjMwNGMuMzQ4LjA2NC42Ni4wOTMuOTUuMDk2bTI0LjgyMi0uNTYyYTEuMTcgMS4xNyAwIDAgMCAuMTQyLjFjLjEyMy4wNzguMjUyLjE0NS4zODUuMjAzYTIuOTMgMi45MyAwIDAgMCAuNjM3LjE5NGMuMjk2LjA2LjU5OC4wODguOS4wODdhNS44NCA1Ljg0IDAgMCAwIC45NTUtLjA4NyA3LjI0IDcuMjQgMCAwIDAgMS4xMzgtLjMwMWMuNDUzLS4xNi44OTUtLjM1NCAxLjMyLS41OC41Mi0uMjc0IDEuMDItLjU4IDEuNTAzLS45MThsLTMuNjg1LTMuNi0xMi4yLTEyLjI1OC01LjM1NiA1LjM1Ni03LjIzLTcuNDU1TDguNDQgMzIuNjQ3Yy40OC4zMzcuOTguNjQ0IDEuNS45MTguNDcuMjQ2LjkuNDM0IDEuMzE3LjU4YTcuMTggNy4xOCAwIDAgMCAxLjEzNS4zMDEgNS41MyA1LjUzIDAgMCAwIC45NTUuMDg3IDQuNTMgNC41MyAwIDAgMCAuOS0uMDg3IDMuMjkgMy4yOSAwIDAgMCAuNjM3LS4xOTRjLjEzNC0uMDU0LjI2My0uMTIuMzg1LS4xOTdsLjE0NS0uMTA0IDguMTkzLTguMTkzIDIuOTI0LTIuODA4IDguMTA2IDguMTA2IDIuODM3IDIuOTEyYy4wNDYuMDM3LjA5NC4wNy4xNDUuMS4xMjIuMDc4LjI1LjE0NS4zODUuMmEzLjQ5IDMuNDkgMCAwIDAgLjYzNy4xOTRjLjI1NS4wNTIuNTU2LjA4Ny45MDMuMDg3YTUuODQgNS44NCAwIDAgMCAuOTU1LS4wODdjLjM4Ny0uMDY4Ljc2OC0uMTY4IDEuMTM4LS4zYTkuOTQgOS45NCAwIDAgMCAxLjMyLS41NzljLjUyLS4yNzQgMS4wMi0uNTggMS41MDMtLjkxOGwtNi41MDgtNi4zNyAxLjItMS4yIDUuNjMgNS42MyAzLjI4MyAzLjI1NE00Ny45OTYuMDJsMTUuOTk4IDI3LjcxNC0xNS45OSAyNy42OTRIMTUuOTk4TDAgMjcuNzE0IDE1Ljk5OCAweiIvPjxwYXRoIGQ9Ik0zOC4wMjIgMjYuMzY3TDMzLjc2IDIyLjExbC4zMDQtLjMwNCA0LjMgNC4yNDR6Ii8+PC9nPjwvc3ltYm9sPjwvc3ZnPg==;" vertex="1" parent="Dv9-QlDLPCMpULR3lJqR-1">
          <mxGeometry x="364" y="299" width="49.77" height="43.65" as="geometry" />
        </mxCell>
        <mxCell id="Dv9-QlDLPCMpULR3lJqR-139" style="rounded=0;orthogonalLoop=1;jettySize=auto;html=1;entryX=0.5;entryY=0;entryDx=0;entryDy=0;startSize=6;endArrow=none;endFill=0;endSize=2;fontFamily=Manrope;fontSize=8;strokeColor=#98A2AE;fontSource=https%3A%2F%2Ffonts.googleapis.com%2Fcss%3Ffamily%3DManrope;exitX=0.5;exitY=1;exitDx=0;exitDy=0;" edge="1" parent="Dv9-QlDLPCMpULR3lJqR-1" source="Dv9-QlDLPCMpULR3lJqR-131" target="Dv9-QlDLPCMpULR3lJqR-137">
          <mxGeometry relative="1" as="geometry">
            <mxPoint x="415" y="244" as="sourcePoint" />
            <mxPoint x="470" y="244" as="targetPoint" />
          </mxGeometry>
        </mxCell>
        <mxCell id="Dv9-QlDLPCMpULR3lJqR-140" style="rounded=0;orthogonalLoop=1;jettySize=auto;html=1;entryX=0.5;entryY=0;entryDx=0;entryDy=0;startSize=6;endArrow=none;endFill=0;endSize=2;fontFamily=Manrope;fontSize=8;strokeColor=#98A2AE;fontSource=https%3A%2F%2Ffonts.googleapis.com%2Fcss%3Ffamily%3DManrope;exitX=0.5;exitY=1;exitDx=0;exitDy=0;" edge="1" parent="Dv9-QlDLPCMpULR3lJqR-1" source="Dv9-QlDLPCMpULR3lJqR-97">
          <mxGeometry relative="1" as="geometry">
            <mxPoint x="390" y="269" as="sourcePoint" />
            <mxPoint x="493.88499999999976" y="299" as="targetPoint" />
          </mxGeometry>
        </mxCell>
        <mxCell id="Dv9-QlDLPCMpULR3lJqR-141" value="" style="shape=image;verticalLabelPosition=bottom;labelBackgroundColor=#ffffff;verticalAlign=top;aspect=fixed;imageAspect=0;image=data:image/svg+xml,PHN2ZyB4bWxucz0iaHR0cDovL3d3dy53My5vcmcvMjAwMC9zdmciIHhtbG5zOnhsaW5rPSJodHRwOi8vd3d3LnczLm9yZy8xOTk5L3hsaW5rIiB2aWV3Qm94PSIwIDAgNTEzIDUxNCIgZmlsbD0iI2ZmZiIgZmlsbC1ydWxlPSJldmVub2RkIiBzdHJva2U9IiMwMDAiIHN0cm9rZS1saW5lY2FwPSJyb3VuZCIgc3Ryb2tlLWxpbmVqb2luPSJyb3VuZCI+PHVzZSB4bGluazpocmVmPSIjQSIgeD0iLjUiIHk9Ii41Ii8+PHN5bWJvbCBpZD0iQSIgb3ZlcmZsb3c9InZpc2libGUiPjxnIHN0cm9rZT0ibm9uZSIgZmlsbC1ydWxlPSJub256ZXJvIj48cGF0aCBkPSJNMCA3Ni44QzAgMzQuMjUzIDM0LjI1MyAwIDc2LjggMGgzNTguNEM0NzcuNzQ3IDAgNTEyIDM0LjI1MyA1MTIgNzYuOHYzNTguNGMwIDQyLjU0Ny0zNC4yNTMgNzYuOC03Ni44IDc2LjhINzYuOEMzNC4yNTMgNTEyIDAgNDc3Ljc0NyAwIDQzNS4yeiIgZmlsbD0iI2U2NWUxNyIvPjxwYXRoIGQ9Ik0xMTUgMjU2YzAtODMuMSA2Ni45LTE1MCAxNTAtMTUwczE1MCA2Ni45IDE1MCAxNTAtNjYuOSAxNTAtMTUwIDE1MC0xNTAtNjYuOS0xNTAtMTUweiIvPjxwYXRoIGQ9Ik0xNjYgMjU2YzAtNTQuODQ2IDQ0LjE1NC05OSA5OS05OXM5OSA0NC4xNTQgOTkgOTktNDQuMTU0IDk5LTk5IDk5LTk5LTQ0LjE1NC05OS05OXptLTEyMyAxYTQ2LjkgNDYuOSAwIDAgMSA0Ny00NyA0NyA0NyAwIDEgMSAwIDk0IDQ2LjkgNDYuOSAwIDAgMS00Ny00N3ptMjYzIDE1MmE0NyA0NyAwIDEgMSA5NCAwIDQ3IDQ3IDAgMSAxLTk0IDB6bTAtMzA1YTQ3IDQ3IDAgMSAxIDk0IDAgNDcgNDcgMCAxIDEtOTQgMHoiIGZpbGw9IiNlNjVlMTciLz48dXNlIHhsaW5rOmhyZWY9IiNDIi8+PHVzZSB4bGluazpocmVmPSIjQyIgeT0iMzA1Ii8+PHVzZSB4bGluazpocmVmPSIjQyIgeD0iLTI2MyIgeT0iMTUzIi8+PHBhdGggZD0iTTQyMCAyNjZ2LTE5aC02MHYxOXpNMTc5IDM4NWwxNyAxMCAzMS01My0xNy05em0xNy0yNjhsLTE3IDEwIDMxIDUyIDE3LTl6IiBmaWxsPSIjZTY1ZTE3Ii8+PC9nPjwvc3ltYm9sPjxkZWZzPjxwYXRoIGlkPSJDIiBkPSJNMzE3IDEwNGMwLTE5Ljk0NCAxNi4wNTYtMzYgMzYtMzZzMzYgMTYuMDU2IDM2IDM2LTE2LjA1NiAzNi0zNiAzNi0zNi0xNi4wNTYtMzYtMzZ6Ii8+PC9kZWZzPjwvc3ZnPg==;" vertex="1" parent="Dv9-QlDLPCMpULR3lJqR-1">
          <mxGeometry x="472.5" y="299.29" width="43" height="43.08" as="geometry" />
        </mxCell>
        <mxCell id="Dv9-QlDLPCMpULR3lJqR-142" value="Alpine" style="text;html=1;align=center;verticalAlign=middle;resizable=0;points=[];autosize=1;fontSize=12;fontFamily=Manrope;rotation=0;fontSource=https%3A%2F%2Ffonts.googleapis.com%2Fcss%3Ffamily%3DManrope;fontColor=#001135;fontStyle=0" vertex="1" parent="Dv9-QlDLPCMpULR3lJqR-1">
          <mxGeometry x="365" y="341" width="45" height="19" as="geometry" />
        </mxCell>
        <mxCell id="Dv9-QlDLPCMpULR3lJqR-143" value="Ubuntu" style="text;html=1;align=center;verticalAlign=middle;resizable=0;points=[];autosize=1;fontSize=12;fontFamily=Manrope;rotation=0;fontSource=https%3A%2F%2Ffonts.googleapis.com%2Fcss%3Ffamily%3DManrope;fontColor=#001135;fontStyle=0" vertex="1" parent="Dv9-QlDLPCMpULR3lJqR-1">
          <mxGeometry x="467.5" y="342.65" width="53" height="19" as="geometry" />
        </mxCell>
        <mxCell id="Dv9-QlDLPCMpULR3lJqR-144" value="" style="endArrow=none;dashed=1;html=1;fontSize=12;rounded=0;strokeColor=#BEC8D2;" edge="1" parent="Dv9-QlDLPCMpULR3lJqR-1">
          <mxGeometry width="50" height="50" relative="1" as="geometry">
            <mxPoint x="364" y="363" as="sourcePoint" />
            <mxPoint x="520" y="364" as="targetPoint" />
            <Array as="points">
              <mxPoint x="370" y="372" />
              <mxPoint x="514" y="371" />
            </Array>
          </mxGeometry>
        </mxCell>
        <mxCell id="Dv9-QlDLPCMpULR3lJqR-145" value="client emulating or test containers" style="text;html=1;align=center;verticalAlign=middle;resizable=0;points=[];autosize=1;fontSize=12;fontFamily=Manrope;rotation=0;fontSource=https%3A%2F%2Ffonts.googleapis.com%2Fcss%3Ffamily%3DManrope;fontStyle=0;fontColor=#BEC8D2;" vertex="1" parent="Dv9-QlDLPCMpULR3lJqR-1">
          <mxGeometry x="347" y="371" width="201" height="19" as="geometry" />
        </mxCell>
      </root>
    </mxGraphModel>
  </diagram>
  <diagram id="vQ0_ktQc3MkOuop-DZwt" name="[2] topo_one_srl">
    <mxGraphModel dx="1710" dy="917" grid="1" gridSize="5" guides="1" tooltips="1" connect="1" arrows="1" fold="1" page="1" pageScale="1" pageWidth="827" pageHeight="1169" math="0" shadow="0">
      <root>
        <mxCell id="fYKZcJDmddNhOSSWLx96-0" />
        <mxCell id="fYKZcJDmddNhOSSWLx96-1" parent="fYKZcJDmddNhOSSWLx96-0" />
        <mxCell id="fYKZcJDmddNhOSSWLx96-8" value="SR&lt;br style=&quot;font-size: 12px;&quot;&gt;Linux" style="text;html=1;align=center;verticalAlign=middle;resizable=0;points=[];autosize=1;fontSize=12;fontFamily=Manrope;fontSource=https%3A%2F%2Ffonts.googleapis.com%2Fcss%3Ffamily%3DManrope;" parent="fYKZcJDmddNhOSSWLx96-1" vertex="1">
          <mxGeometry x="147.5" y="373" width="45" height="35" as="geometry" />
        </mxCell>
        <mxCell id="3i1HjiR07IHPQ9DJ27CP-0" value="" style="group" vertex="1" connectable="0" parent="fYKZcJDmddNhOSSWLx96-1">
          <mxGeometry x="145" y="325" width="50" height="50" as="geometry" />
        </mxCell>
        <mxCell id="fYKZcJDmddNhOSSWLx96-3" value="" style="whiteSpace=wrap;html=1;aspect=fixed;fillColor=#001135;strokeColor=none;connectable=1;allowArrows=1;" parent="3i1HjiR07IHPQ9DJ27CP-0" vertex="1">
          <mxGeometry width="50" height="50" as="geometry" />
        </mxCell>
        <mxCell id="fYKZcJDmddNhOSSWLx96-4" value="" style="endArrow=open;html=1;edgeStyle=orthogonalEdgeStyle;rounded=0;endFill=0;startSize=6;endSize=2;strokeColor=#FFFFFF;" parent="3i1HjiR07IHPQ9DJ27CP-0" edge="1">
          <mxGeometry width="83.33333333333334" height="83.33333333333334" as="geometry">
            <mxPoint x="5" y="20" as="sourcePoint" />
            <mxPoint x="18.333333333333336" y="5" as="targetPoint" />
            <Array as="points">
              <mxPoint x="18.333333333333336" y="20" />
            </Array>
          </mxGeometry>
        </mxCell>
        <mxCell id="fYKZcJDmddNhOSSWLx96-5" value="" style="endArrow=open;html=1;edgeStyle=orthogonalEdgeStyle;rounded=0;endFill=0;startSize=6;endSize=2;strokeColor=#FFFFFF;" parent="3i1HjiR07IHPQ9DJ27CP-0" edge="1">
          <mxGeometry width="83.33333333333334" height="83.33333333333334" as="geometry">
            <mxPoint x="18.333333333333336" y="45" as="sourcePoint" />
            <mxPoint x="5" y="31.666666666666668" as="targetPoint" />
            <Array as="points">
              <mxPoint x="18.333333333333336" y="31.666666666666668" />
            </Array>
          </mxGeometry>
        </mxCell>
        <mxCell id="fYKZcJDmddNhOSSWLx96-6" value="" style="endArrow=open;html=1;edgeStyle=orthogonalEdgeStyle;rounded=0;endFill=0;startSize=6;endSize=2;strokeColor=#FFFFFF;" parent="3i1HjiR07IHPQ9DJ27CP-0" edge="1">
          <mxGeometry width="83.33333333333334" height="83.33333333333334" as="geometry">
            <mxPoint x="30" y="5" as="sourcePoint" />
            <mxPoint x="45" y="20" as="targetPoint" />
            <Array as="points">
              <mxPoint x="30" y="20" />
            </Array>
          </mxGeometry>
        </mxCell>
        <mxCell id="fYKZcJDmddNhOSSWLx96-7" value="" style="endArrow=open;html=1;edgeStyle=orthogonalEdgeStyle;rounded=0;endFill=0;startSize=6;endSize=2;strokeColor=#FFFFFF;" parent="3i1HjiR07IHPQ9DJ27CP-0" edge="1">
          <mxGeometry width="83.33333333333334" height="83.33333333333334" as="geometry">
            <mxPoint x="45" y="31.666666666666668" as="sourcePoint" />
            <mxPoint x="30" y="45" as="targetPoint" />
            <Array as="points">
              <mxPoint x="30" y="31.666666666666668" />
            </Array>
          </mxGeometry>
        </mxCell>
      </root>
    </mxGraphModel>
  </diagram>
  <diagram name="[3] topo_two_srl" id="eAvBe_fzjq8YIeLeimek">
    <mxGraphModel dx="2052" dy="1100" grid="1" gridSize="5" guides="1" tooltips="1" connect="1" arrows="1" fold="1" page="1" pageScale="1" pageWidth="827" pageHeight="1169" math="0" shadow="0">
      <root>
        <mxCell id="Eo7WSLzE0l0r2pWy3q-W-0" />
        <mxCell id="Eo7WSLzE0l0r2pWy3q-W-1" parent="Eo7WSLzE0l0r2pWy3q-W-0" />
        <mxCell id="Eo7WSLzE0l0r2pWy3q-W-2" value="SR&lt;br style=&quot;font-size: 12px;&quot;&gt;Linux" style="text;html=1;align=center;verticalAlign=middle;resizable=0;points=[];autosize=1;fontSize=12;fontFamily=Manrope;fontSource=https%3A%2F%2Ffonts.googleapis.com%2Fcss%3Ffamily%3DManrope;" vertex="1" parent="Eo7WSLzE0l0r2pWy3q-W-1">
          <mxGeometry x="147.5" y="373" width="45" height="35" as="geometry" />
        </mxCell>
        <mxCell id="Eo7WSLzE0l0r2pWy3q-W-3" value="SR&lt;br style=&quot;font-size: 12px;&quot;&gt;Linux" style="text;html=1;align=center;verticalAlign=middle;resizable=0;points=[];autosize=1;fontSize=12;fontFamily=Manrope;fontSource=https%3A%2F%2Ffonts.googleapis.com%2Fcss%3Ffamily%3DManrope;" vertex="1" parent="Eo7WSLzE0l0r2pWy3q-W-1">
          <mxGeometry x="307.5" y="373" width="45" height="35" as="geometry" />
        </mxCell>
        <mxCell id="Eo7WSLzE0l0r2pWy3q-W-4" value="" style="group" vertex="1" connectable="0" parent="Eo7WSLzE0l0r2pWy3q-W-1">
          <mxGeometry x="145" y="325" width="50" height="50" as="geometry" />
        </mxCell>
        <mxCell id="Eo7WSLzE0l0r2pWy3q-W-5" value="" style="whiteSpace=wrap;html=1;aspect=fixed;fillColor=#001135;strokeColor=none;connectable=1;allowArrows=1;" vertex="1" parent="Eo7WSLzE0l0r2pWy3q-W-4">
          <mxGeometry width="50" height="50" as="geometry" />
        </mxCell>
        <mxCell id="Eo7WSLzE0l0r2pWy3q-W-6" value="" style="endArrow=open;html=1;edgeStyle=orthogonalEdgeStyle;rounded=0;endFill=0;startSize=6;endSize=2;strokeColor=#FFFFFF;" edge="1" parent="Eo7WSLzE0l0r2pWy3q-W-4">
          <mxGeometry width="83.33333333333334" height="83.33333333333334" as="geometry">
            <mxPoint x="5" y="20" as="sourcePoint" />
            <mxPoint x="18.333333333333336" y="5" as="targetPoint" />
            <Array as="points">
              <mxPoint x="18.333333333333336" y="20" />
            </Array>
          </mxGeometry>
        </mxCell>
        <mxCell id="Eo7WSLzE0l0r2pWy3q-W-7" value="" style="endArrow=open;html=1;edgeStyle=orthogonalEdgeStyle;rounded=0;endFill=0;startSize=6;endSize=2;strokeColor=#FFFFFF;" edge="1" parent="Eo7WSLzE0l0r2pWy3q-W-4">
          <mxGeometry width="83.33333333333334" height="83.33333333333334" as="geometry">
            <mxPoint x="18.333333333333336" y="45" as="sourcePoint" />
            <mxPoint x="5" y="31.666666666666668" as="targetPoint" />
            <Array as="points">
              <mxPoint x="18.333333333333336" y="31.666666666666668" />
            </Array>
          </mxGeometry>
        </mxCell>
        <mxCell id="Eo7WSLzE0l0r2pWy3q-W-8" value="" style="endArrow=open;html=1;edgeStyle=orthogonalEdgeStyle;rounded=0;endFill=0;startSize=6;endSize=2;strokeColor=#FFFFFF;" edge="1" parent="Eo7WSLzE0l0r2pWy3q-W-4">
          <mxGeometry width="83.33333333333334" height="83.33333333333334" as="geometry">
            <mxPoint x="30" y="5" as="sourcePoint" />
            <mxPoint x="45" y="20" as="targetPoint" />
            <Array as="points">
              <mxPoint x="30" y="20" />
            </Array>
          </mxGeometry>
        </mxCell>
        <mxCell id="Eo7WSLzE0l0r2pWy3q-W-9" value="" style="endArrow=open;html=1;edgeStyle=orthogonalEdgeStyle;rounded=0;endFill=0;startSize=6;endSize=2;strokeColor=#FFFFFF;" edge="1" parent="Eo7WSLzE0l0r2pWy3q-W-4">
          <mxGeometry width="83.33333333333334" height="83.33333333333334" as="geometry">
            <mxPoint x="45" y="31.666666666666668" as="sourcePoint" />
            <mxPoint x="30" y="45" as="targetPoint" />
            <Array as="points">
              <mxPoint x="30" y="31.666666666666668" />
            </Array>
          </mxGeometry>
        </mxCell>
        <mxCell id="Eo7WSLzE0l0r2pWy3q-W-10" value="" style="group" vertex="1" connectable="0" parent="Eo7WSLzE0l0r2pWy3q-W-1">
          <mxGeometry x="305" y="325" width="50" height="50" as="geometry" />
        </mxCell>
        <mxCell id="Eo7WSLzE0l0r2pWy3q-W-11" value="" style="whiteSpace=wrap;html=1;aspect=fixed;fillColor=#001135;strokeColor=none;connectable=1;allowArrows=1;" vertex="1" parent="Eo7WSLzE0l0r2pWy3q-W-10">
          <mxGeometry width="50" height="50" as="geometry" />
        </mxCell>
        <mxCell id="Eo7WSLzE0l0r2pWy3q-W-12" value="" style="endArrow=open;html=1;edgeStyle=orthogonalEdgeStyle;rounded=0;endFill=0;startSize=6;endSize=2;strokeColor=#FFFFFF;" edge="1" parent="Eo7WSLzE0l0r2pWy3q-W-10">
          <mxGeometry width="83.33333333333334" height="83.33333333333334" as="geometry">
            <mxPoint x="5" y="20" as="sourcePoint" />
            <mxPoint x="18.333333333333336" y="5" as="targetPoint" />
            <Array as="points">
              <mxPoint x="18.333333333333336" y="20" />
            </Array>
          </mxGeometry>
        </mxCell>
        <mxCell id="Eo7WSLzE0l0r2pWy3q-W-13" value="" style="endArrow=open;html=1;edgeStyle=orthogonalEdgeStyle;rounded=0;endFill=0;startSize=6;endSize=2;strokeColor=#FFFFFF;" edge="1" parent="Eo7WSLzE0l0r2pWy3q-W-10">
          <mxGeometry width="83.33333333333334" height="83.33333333333334" as="geometry">
            <mxPoint x="18.333333333333336" y="45" as="sourcePoint" />
            <mxPoint x="5" y="31.666666666666668" as="targetPoint" />
            <Array as="points">
              <mxPoint x="18.333333333333336" y="31.666666666666668" />
            </Array>
          </mxGeometry>
        </mxCell>
        <mxCell id="Eo7WSLzE0l0r2pWy3q-W-14" value="" style="endArrow=open;html=1;edgeStyle=orthogonalEdgeStyle;rounded=0;endFill=0;startSize=6;endSize=2;strokeColor=#FFFFFF;" edge="1" parent="Eo7WSLzE0l0r2pWy3q-W-10">
          <mxGeometry width="83.33333333333334" height="83.33333333333334" as="geometry">
            <mxPoint x="30" y="5" as="sourcePoint" />
            <mxPoint x="45" y="20" as="targetPoint" />
            <Array as="points">
              <mxPoint x="30" y="20" />
            </Array>
          </mxGeometry>
        </mxCell>
        <mxCell id="Eo7WSLzE0l0r2pWy3q-W-15" value="" style="endArrow=open;html=1;edgeStyle=orthogonalEdgeStyle;rounded=0;endFill=0;startSize=6;endSize=2;strokeColor=#FFFFFF;" edge="1" parent="Eo7WSLzE0l0r2pWy3q-W-10">
          <mxGeometry width="83.33333333333334" height="83.33333333333334" as="geometry">
            <mxPoint x="45" y="31.666666666666668" as="sourcePoint" />
            <mxPoint x="30" y="45" as="targetPoint" />
            <Array as="points">
              <mxPoint x="30" y="31.666666666666668" />
            </Array>
          </mxGeometry>
        </mxCell>
      </root>
    </mxGraphModel>
  </diagram>
</mxfile>
